<svg width="83" height="72" viewBox="0 0 83 72" fill="none" xmlns="http://www.w3.org/2000/svg">
<path d="M37.0786 13.7846C37.0786 22.5906 33.9115 32.0145 27.5774 42.0564C21.0888 52.2528 13.9823 60.9815 6.25774 68.2426C4.24936 70.2509 2.54996 71.2551 1.15954 71.2551C0.387092 71.2551 0.000865526 70.7917 0.000865608 69.8647C0.000865648 69.4013 0.464336 68.3198 1.39128 66.6204C8.96132 53.1797 12.7463 40.357 12.7463 28.1523C12.7463 23.672 12.2829 19.8098 11.3559 16.5655C10.2745 13.3212 9.19306 10.9266 8.11162 9.38166C7.03019 7.83676 5.48528 6.06011 3.47691 4.05174C2.85895 3.27928 2.70446 2.50683 3.01344 1.73438C3.16793 0.961927 3.70865 0.575701 4.63559 0.575701C9.11582 0.421213 14.0595 0.807439 19.4667 1.73438C24.7194 2.81581 28.5044 3.89724 30.8217 4.97868C34.993 6.83257 37.0786 9.76789 37.0786 13.7846ZM82.2671 13.7846C82.2671 22.5906 79.1 32.0145 72.7659 42.0564C66.2773 52.0983 59.0935 60.827 51.2145 68.2426C49.5151 70.251 47.8157 71.2551 46.1163 71.2551C45.3438 71.2551 44.9576 70.7917 44.9576 69.8647C44.9576 69.4013 45.3438 68.3198 46.1163 66.6204C53.8408 52.8708 57.7031 40.048 57.7031 28.1523C57.7031 23.672 57.2396 19.8098 56.3127 16.5655C55.2312 13.3212 54.1498 10.9266 53.0684 9.38166C51.9869 7.83676 50.442 6.06012 48.4337 4.05174C47.6612 3.27929 47.4295 2.50684 47.7385 1.73438C48.0474 0.961931 48.7426 0.575705 49.8241 0.575705C54.1498 0.421217 59.0163 0.807443 64.4234 1.73438C69.8306 2.81581 73.6156 3.89725 75.7785 4.97869C80.1042 6.98707 82.2671 9.92239 82.2671 13.7846Z" fill="#EEEEEE"/>
</svg>
