<svg width="33" height="33" viewBox="0 0 33 33" xmlns="http://www.w3.org/2000/svg">
<path fill-rule="evenodd" clip-rule="evenodd" d="M25.0671 26.6675V26.6648L25.0911 26.6075L29.0898 6.44751V6.38351C29.0898 5.88084 28.9031 5.44217 28.5005 5.17951C28.1471 4.94884 27.7405 4.93284 27.4551 4.95417C27.1895 4.97819 26.9275 5.03186 26.6738 5.11417C26.5656 5.14905 26.4589 5.18819 26.3538 5.23151L26.3365 5.23817L4.04314 13.9835L4.03647 13.9862C3.96869 14.0093 3.90235 14.0365 3.83781 14.0675C3.67926 14.1387 3.52714 14.2235 3.38314 14.3208C3.09647 14.5182 2.55114 14.9822 2.64314 15.7182C2.71914 16.3288 3.13914 16.7155 3.42314 16.9168C3.59077 17.0343 3.771 17.1327 3.96047 17.2102L4.00314 17.2288L4.01647 17.2328L4.0258 17.2368L7.92714 18.5502C7.9138 18.7942 7.93781 19.0435 8.00314 19.2902L9.95647 26.7022C10.0632 27.1062 10.2938 27.4667 10.6158 27.7329C10.9379 27.9992 11.3353 28.1579 11.7522 28.1867C12.1691 28.2155 12.5845 28.113 12.9402 27.8937C13.2958 27.6743 13.5738 27.349 13.7351 26.9635L16.7858 23.7022L22.0245 27.7182L22.0991 27.7502C22.5751 27.9582 23.0191 28.0235 23.4258 27.9688C23.8325 27.9128 24.1551 27.7422 24.3978 27.5488C24.6785 27.3213 24.9022 27.0314 25.0511 26.7022L25.0618 26.6795L25.0658 26.6715L25.0671 26.6675ZM9.93647 18.7808C9.91484 18.6986 9.91998 18.6116 9.95115 18.5325C9.98232 18.4534 10.0379 18.3862 10.1098 18.3408L23.3378 9.94084C23.3378 9.94084 24.1165 9.4675 24.0885 9.94084C24.0885 9.94084 24.2271 10.0235 23.8098 10.4115C23.4151 10.7808 14.3818 19.5022 13.4671 20.3848C13.4163 20.4342 13.3807 20.4972 13.3645 20.5662L11.8898 26.1928L9.93647 18.7808Z"/>
</svg>
