<svg width="33" height="33" viewBox="0 0 33 33" xmlns="http://www.w3.org/2000/svg">
<path d="M25.8229 6.82735C24.6005 5.59258 23.1445 4.61357 21.5398 3.94741C19.935 3.28126 18.2137 2.94129 16.4763 2.94735C9.19625 2.94735 3.26292 8.88068 3.26292 16.1607C3.26292 18.494 3.87625 20.7607 5.02292 22.7607L3.15625 29.614L10.1563 27.774C12.0896 28.8273 14.2629 29.3873 16.4763 29.3873C23.7563 29.3873 29.6896 23.454 29.6896 16.174C29.6896 12.6407 28.3163 9.32068 25.8229 6.82735ZM16.4763 27.1473C14.5029 27.1473 12.5696 26.614 10.8763 25.614L10.4762 25.374L6.31625 26.4673L7.42292 22.414L7.15625 22.0007C6.05991 20.25 5.47777 18.2263 5.47625 16.1607C5.47625 10.1073 10.4096 5.17401 16.4629 5.17401C19.3962 5.17401 22.1563 6.32068 24.2229 8.40068C25.2462 9.4193 26.0572 10.6309 26.6088 11.9652C27.1604 13.2996 27.4416 14.7302 27.4363 16.174C27.4629 22.2273 22.5296 27.1473 16.4763 27.1473ZM22.5029 18.934C22.1696 18.774 20.5429 17.974 20.2496 17.854C19.9429 17.7473 19.7296 17.694 19.5029 18.014C19.2763 18.3473 18.6496 19.094 18.4629 19.3073C18.2762 19.534 18.0762 19.5607 17.7429 19.3873C17.4096 19.2273 16.3429 18.8673 15.0896 17.7473C14.1029 16.8673 13.4496 15.7873 13.2496 15.454C13.0629 15.1207 13.2229 14.9473 13.3962 14.774C13.5429 14.6273 13.7296 14.3873 13.8896 14.2007C14.0496 14.014 14.1163 13.8673 14.2229 13.654C14.3296 13.4273 14.2762 13.2407 14.1962 13.0807C14.1162 12.9207 13.4496 11.294 13.1829 10.6273C12.9162 9.98735 12.6363 10.0673 12.4363 10.054H11.7962C11.5696 10.054 11.2229 10.134 10.9162 10.4673C10.6229 10.8007 9.76958 11.6007 9.76958 13.2273C9.76958 14.854 10.9563 16.4273 11.1163 16.6407C11.2763 16.8673 13.4496 20.2007 16.7563 21.6273C17.5429 21.974 18.1562 22.174 18.6363 22.3207C19.4229 22.574 20.1429 22.534 20.7163 22.454C21.3563 22.3607 22.6762 21.654 22.9429 20.8807C23.2229 20.1073 23.2229 19.454 23.1296 19.3073C23.0363 19.1607 22.8362 19.094 22.5029 18.934Z"/>
</svg>
