<svg width="26" height="26" viewBox="0 0 26 26" fill="none" xmlns="http://www.w3.org/2000/svg">
<path d="M4.97417 13.663C4.03002 12.3119 2.27601 13.2704 0.964395 14.4055C0.415252 14.8808 0.638385 15.8147 1.1686 16.311C3.04838 18.0705 4.70985 22.048 5.64882 24.8891C5.87171 25.5635 6.69934 25.8303 7.25857 25.3924L9.96978 23.2694C10.1536 23.1254 10.277 22.9253 10.344 22.7017C11.5567 18.651 19.7121 7.96183 25.0799 1.33719C25.6866 0.588378 25.0864 -0.227469 24.2841 0.306567C19.2901 3.6308 12.6685 12.042 8.88216 17.4173C8.42906 18.0606 7.43117 17.9702 7.0759 17.2682C6.51055 16.1509 5.75424 14.7793 4.97417 13.663Z" fill="url(#paint0_linear_1197_978)"/>
<defs>
<linearGradient id="paint0_linear_1197_978" x1="11.2043" y1="-1" x2="13.9124" y2="26.0383" gradientUnits="userSpaceOnUse">
<stop stop-color="#53C4D0"/>
<stop offset="1" stop-color="#008A99"/>
</linearGradient>
</defs>
</svg>
