<svg width="21" height="20" viewBox="0 0 21 20" fill="none" xmlns="http://www.w3.org/2000/svg">
<path d="M14.1257 12.2695L13.6133 12.7789C13.6133 12.7789 12.3954 13.9899 9.07098 10.6843C5.74663 7.37888 6.96453 6.16789 6.96453 6.16789L7.28719 5.84705C8.08211 5.05669 8.15704 3.78777 7.46347 2.86141L6.04491 0.966461C5.18656 -0.180094 3.52795 -0.331553 2.54413 0.64668L0.778329 2.40246C0.290507 2.88751 -0.0363958 3.51628 0.00324922 4.21381C0.104668 5.99829 0.912047 9.83778 5.41728 14.3174C10.1949 19.0678 14.6776 19.2566 16.5108 19.0857C17.0907 19.0317 17.5949 18.7364 18.0012 18.3323L19.5994 16.7434C20.6782 15.6707 20.374 13.8318 18.9937 13.0815L16.8444 11.9131C15.9381 11.4204 14.834 11.5651 14.1257 12.2695Z" fill="url(#paint0_linear_599_774)"/>
<defs>
<linearGradient id="paint0_linear_599_774" x1="8.46225" y1="-2.69197e-08" x2="10.2437" y2="18.9575" gradientUnits="userSpaceOnUse">
<stop stop-color="#53C4D0"/>
<stop offset="1" stop-color="#008A99"/>
</linearGradient>
</defs>
</svg>
