<svg width="83" height="72" viewBox="0 0 83 72" fill="none" xmlns="http://www.w3.org/2000/svg">
<path d="M45.9229 58.2156C45.9229 49.4096 49.0899 39.9857 55.424 29.9438C61.9126 19.7475 69.0192 11.0187 76.7437 3.75769C78.7521 1.74931 80.4515 0.745117 81.8419 0.745117C82.6144 0.745117 83.0006 1.20859 83.0006 2.13553C83.0006 2.599 82.5371 3.68044 81.6102 5.37983C74.0402 18.8205 70.2551 31.6432 70.2551 43.848C70.2551 48.3282 70.7186 52.1905 71.6456 55.4348C72.727 58.6791 73.8084 61.0737 74.8898 62.6186C75.9713 64.1635 77.5162 65.9401 79.5246 67.9485C80.1425 68.721 80.297 69.4934 79.988 70.2659C79.8335 71.0383 79.2928 71.4246 78.3659 71.4246C73.8857 71.579 68.942 71.1928 63.5348 70.2659C58.2821 69.1844 54.4971 68.103 52.1797 67.0216C48.0085 65.1677 45.9229 62.2324 45.9229 58.2156ZM0.734375 58.2156C0.734375 49.4096 3.90143 39.9857 10.2355 29.9438C16.7241 19.9019 23.908 11.1732 31.787 3.75769C33.4864 1.74931 35.1858 0.745117 36.8852 0.745117C37.6576 0.745117 38.0438 1.20859 38.0438 2.13553C38.0438 2.599 37.6576 3.68044 36.8852 5.37983C29.1606 19.1295 25.2984 31.9522 25.2984 43.848C25.2984 48.3282 25.7618 52.1905 26.6888 55.4348C27.7702 58.6791 28.8517 61.0737 29.9331 62.6186C31.0145 64.1635 32.5594 65.9401 34.5678 67.9485C35.3403 68.721 35.572 69.4934 35.263 70.2659C34.954 71.0383 34.2588 71.4246 33.1774 71.4246C28.8517 71.579 23.9852 71.1928 18.578 70.2659C13.1709 69.1844 9.38585 68.103 7.22298 67.0216C2.89724 65.0132 0.734375 62.0779 0.734375 58.2156Z" fill="#EEEEEE"/>
</svg>
