<svg width="22" height="23" viewBox="0 0 22 23" fill="none" xmlns="http://www.w3.org/2000/svg">
<g clip-path="url(#clip0_910_788)">
<path d="M11 0.28125C4.9255 0.28125 0 5.20579 0 11.2808C0 17.3557 4.92502 22.2803 11 22.2803C17.0755 22.2803 22 17.3557 22 11.2808C22 5.20579 17.0755 0.28125 11 0.28125ZM11 3.57023C13.01 3.57023 14.6388 5.19951 14.6388 7.20855C14.6388 9.21809 13.01 10.8469 11 10.8469C8.99095 10.8469 7.36216 9.21809 7.36216 7.20855C7.36216 5.19951 8.99095 3.57023 11 3.57023ZM10.9976 19.4044C8.99288 19.4044 7.15681 18.6743 5.74062 17.4659C5.39563 17.1717 5.19656 16.7402 5.19656 16.2874C5.19656 14.2499 6.84565 12.6192 8.88369 12.6192H13.1173C15.1558 12.6192 16.7986 14.2499 16.7986 16.2874C16.7986 16.7407 16.6005 17.1712 16.255 17.4654C14.8393 18.6743 13.0028 19.4044 10.9976 19.4044Z" fill="#D3D0D0"/>
</g>
<defs>
<clipPath id="clip0_910_788">
<rect width="22" height="22" fill="white" transform="translate(0 0.28125)"/>
</clipPath>
</defs>
</svg>
