<svg width="25" height="25" viewBox="0 0 25 25" fill="none" xmlns="http://www.w3.org/2000/svg">
<g clip-path="url(#clip0_910_802)">
<g clip-path="url(#clip1_910_802)">
<path d="M20.9522 3.72566C18.724 1.50582 15.7599 0.282501 12.6052 0.28125C9.45764 0.28125 6.48881 1.50346 4.246 3.72278C1.9992 5.94577 0.760731 8.90014 0.757812 12.0307V12.0365C0.758183 13.9313 1.256 15.8428 2.20095 17.5876L0.79024 24L7.27639 22.5246C8.9191 23.3525 10.7521 23.789 12.6008 23.7897H12.6055C15.7526 23.7897 18.7214 22.5673 20.9645 20.3479C23.2133 18.123 24.4524 15.1724 24.4538 12.0398C24.4547 8.92933 23.2113 5.97658 20.9522 3.72566H20.9522ZM12.6052 21.9385H12.6011C10.9411 21.9378 9.29638 21.521 7.8449 20.733L7.53822 20.5665L3.22521 21.5475L4.16201 17.2898L3.98143 16.9784C3.0835 15.4299 2.60899 13.7206 2.60899 12.0345C2.61241 6.57737 7.09623 2.13242 12.6048 2.13242C15.266 2.13354 17.7665 3.16521 19.6456 5.03705C21.5531 6.93783 22.6032 9.4246 22.6023 12.0393C22.6001 17.4978 18.1154 21.9385 12.6052 21.9385Z" fill="#5AB3C9"/>
<path d="M9.38192 6.85352H8.86261C8.6818 6.85352 8.38828 6.9212 8.14002 7.19137C7.89153 7.46173 7.19141 8.1152 7.19141 9.44419C7.19141 10.7732 8.16262 12.0572 8.29799 12.2376C8.43354 12.4178 10.1727 15.2321 12.9273 16.3148C15.2166 17.2146 15.6826 17.0356 16.1793 16.9905C16.6762 16.9456 17.7828 16.3373 18.0086 15.7066C18.2345 15.076 18.2345 14.5353 18.1668 14.4223C18.0989 14.3098 17.9182 14.2423 17.6473 14.1073C17.3762 13.9721 16.0479 13.3077 15.7995 13.2173C15.551 13.1274 15.3704 13.0823 15.1897 13.3529C15.0089 13.6229 14.4767 14.2476 14.3185 14.4278C14.1605 14.6082 14.0024 14.6308 13.7313 14.4956C13.4602 14.3601 12.5963 14.0699 11.561 13.1499C10.7552 12.4338 10.1961 11.5206 10.0379 11.2503C9.87992 10.9801 10.0211 10.8339 10.1569 10.6991C10.2788 10.5782 10.4432 10.4128 10.5788 10.2552C10.7142 10.0974 10.7527 9.98485 10.8432 9.8046C10.9335 9.62439 10.8882 9.46661 10.8206 9.33162C10.7527 9.19639 10.2326 7.86077 9.99156 7.32655H9.99175C9.78875 6.87672 9.575 6.86144 9.38192 6.85352Z" fill="#5AB3C9"/>
</g>
</g>
<defs>
<clipPath id="clip0_910_802">
<rect width="24" height="24" fill="white" transform="translate(0.757812 0.28125)"/>
</clipPath>
<clipPath id="clip1_910_802">
<rect width="23.7188" height="23.7188" fill="white" transform="translate(0.757812 0.28125)"/>
</clipPath>
</defs>
</svg>
