<svg width="19" height="19" viewBox="0 0 19 19" fill="none" xmlns="http://www.w3.org/2000/svg">
<path d="M12.5946 9.59737L19 13.6467V5.377L12.5946 9.59737ZM0 5.377V13.6467L6.40538 9.59737L0 5.377ZM17.8125 2.96875H1.1875C0.594938 2.96875 0.124688 3.4105 0.035625 3.97931L9.5 10.2149L18.9644 3.97931C18.8753 3.4105 18.4051 2.96875 17.8125 2.96875ZM11.5069 10.3146L9.82656 11.4214C9.72958 11.4851 9.61604 11.5189 9.5 11.5188C9.386 11.5188 9.27319 11.4867 9.17344 11.4214L7.49312 10.3134L0.038 15.029C0.129437 15.5931 0.597313 16.0312 1.1875 16.0312H17.8125C18.4027 16.0312 18.8706 15.5931 18.962 15.029L11.5069 10.3146Z" fill="url(#paint0_linear_599_771)"/>
<defs>
<linearGradient id="paint0_linear_599_771" x1="7.93988" y1="2.96875" x2="8.82928" y2="15.9704" gradientUnits="userSpaceOnUse">
<stop stop-color="#53C4D0"/>
<stop offset="1" stop-color="#008A99"/>
</linearGradient>
</defs>
</svg>
