<svg width="22" height="22" viewBox="0 0 22 22" fill="none" xmlns="http://www.w3.org/2000/svg">
<g id="Group 40183">
<circle id="Ellipse 35" cx="11" cy="11" r="11" fill="#D3D0D0"/>
<path id="Vector" d="M13.2802 11.5671L18 14.3571V8.65927L13.2802 11.5671ZM4 8.65927V14.3571L8.71975 11.5671L4 8.65927ZM17.125 7H4.875C4.43837 7 4.09188 7.30436 4.02625 7.69627L11 11.9925L17.9738 7.69627C17.9081 7.30436 17.5616 7 17.125 7ZM12.4787 12.0613L11.2406 12.8238C11.1692 12.8677 11.0855 12.891 11 12.8909C10.916 12.8909 10.8329 12.8688 10.7594 12.8238L9.52125 12.0605L4.028 15.3095C4.09537 15.6981 4.44013 16 4.875 16H17.125C17.5599 16 17.9046 15.6981 17.972 15.3095L12.4787 12.0613Z" fill="white"/>
</g>
</svg>
