<svg width="40" height="40" viewBox="0 0 40 40" fill="none" xmlns="http://www.w3.org/2000/svg">
<g clip-path="url(#clip0_599_802)">
<rect width="40" height="40" rx="20" fill="url(#paint0_linear_599_802)"/>
<path d="M24.2429 22.2695L23.7305 22.7789C23.7305 22.7789 22.5125 23.9899 19.1882 20.6843C15.8638 17.3789 17.0817 16.1679 17.0817 16.1679L17.4044 15.847C18.1993 15.0567 18.2742 13.7878 17.5807 12.8614L16.1621 10.9665C15.3038 9.81991 13.6451 9.66845 12.6613 10.6467L10.8955 12.4025C10.4077 12.8875 10.0808 13.5163 10.1204 14.2138C10.2219 15.9983 11.0292 19.8378 15.5345 24.3174C20.312 29.0678 24.7948 29.2566 26.628 29.0857C27.2078 29.0317 27.7121 28.7364 28.1184 28.3323L29.7166 26.7434C30.7954 25.6707 30.4912 23.8318 29.1109 23.0815L26.9616 21.9131C26.0553 21.4204 24.9512 21.5651 24.2429 22.2695Z" fill="white"/>
</g>
<defs>
<linearGradient id="paint0_linear_599_802" x1="16.7155" y1="-5.63028e-08" x2="20.6565" y2="39.6079" gradientUnits="userSpaceOnUse">
<stop stop-color="#53C4D0"/>
<stop offset="1" stop-color="#008A99"/>
</linearGradient>
<clipPath id="clip0_599_802">
<rect width="40" height="40" rx="20" fill="white"/>
</clipPath>
</defs>
</svg>
