<svg width="190" height="66" viewBox="0 0 190 66" fill="none" xmlns="http://www.w3.org/2000/svg">
<path d="M189.514 31.9682L178.146 33.9912L185.582 42.825L189.514 31.9682ZM0.790936 0.786333C1.17725 2.03251 1.95832 3.61422 3.06647 5.4314L4.77401 4.3901C3.70071 2.63008 3.01642 1.2108 2.70125 0.194136L0.790936 0.786333ZM9.00358 13.6088C10.9293 15.9537 13.1643 18.4714 15.6864 21.0878L17.1263 19.6998C14.6389 17.1194 12.4394 14.6411 10.5492 12.3395L9.00358 13.6088ZM22.8643 28.0539C25.2323 30.2085 27.7678 32.3856 30.4602 34.5485L31.7128 32.9894C29.0532 30.8527 26.5487 28.7024 24.2103 26.5746L22.8643 28.0539ZM38.4684 40.5867C41.1344 42.4703 43.9184 44.3155 46.8128 46.0959L47.8607 44.3924C45.004 42.6352 42.2553 40.8135 39.6225 38.9532L38.4684 40.5867ZM55.5273 51.0634C58.4436 52.5966 61.4514 54.0503 64.5441 55.4023L65.3452 53.5698C62.2985 52.2378 59.3339 50.8051 56.458 49.2932L55.5273 51.0634ZM73.8798 59.0657C77.0087 60.1542 80.2106 61.129 83.4798 61.9704L83.9783 60.0335C80.7649 59.2065 77.616 58.2479 74.537 57.1767L73.8798 59.0657ZM93.2894 64.0429C96.5579 64.5827 99.8835 64.9811 103.261 65.2205L103.402 63.2255C100.089 62.9906 96.8247 62.5997 93.6153 62.0696L93.2894 64.0429ZM113.308 65.4507C116.6 65.3673 119.934 65.1258 123.304 64.7115L123.06 62.7264C119.755 63.1328 116.486 63.3696 113.258 63.4513L113.308 65.4507ZM133.188 63.01C136.389 62.3 139.618 61.4279 142.871 60.3819L142.258 58.4779C139.064 59.505 135.895 60.3609 132.755 61.0575L133.188 63.01ZM152.276 56.89C155.283 55.6223 158.307 54.2007 161.345 52.6164L160.421 50.843C157.43 52.4026 154.455 53.8009 151.499 55.0471L152.276 56.89ZM170.042 47.6519C172.803 45.9378 175.574 44.0847 178.352 42.0862L177.184 40.4627C174.442 42.4353 171.709 44.2631 168.988 45.9527L170.042 47.6519Z" fill="#C3C3C3"/>
</svg>
