<svg width="41" height="39" viewBox="0 0 41 39" fill="none" xmlns="http://www.w3.org/2000/svg">
<path d="M7.90629 20.4767C6.31032 18.316 3.21963 20.1882 1.15779 22.0267C0.601972 22.5224 0.835379 23.4564 1.43915 23.8923C4.75965 26.2897 7.71695 33.2075 9.19909 37.6464C9.41844 38.3033 10.2163 38.5654 10.7728 38.1531L15.7834 34.441C15.975 34.299 16.1041 34.1039 16.171 33.8749C17.9316 27.8471 31.6324 10.9974 39.967 1.33622C40.6015 0.600721 39.9851 -0.318324 39.1282 0.139159C31.0273 4.46415 19.4359 18.5154 13.3688 26.7699C12.9151 27.3871 11.9595 27.2948 11.6093 26.6136C10.7121 24.8686 9.33494 22.411 7.90629 20.4767Z" fill="url(#paint0_linear_1148_1272)"/>
<path d="M7.90629 20.4767C6.31032 18.316 3.21963 20.1882 1.15779 22.0267C0.601972 22.5224 0.835379 23.4564 1.43915 23.8923C4.75965 26.2897 7.71695 33.2075 9.19909 37.6464C9.41844 38.3033 10.2163 38.5654 10.7728 38.1531L15.7834 34.441C15.975 34.299 16.1041 34.1039 16.171 33.8749C17.9316 27.8471 31.6324 10.9974 39.967 1.33622C40.6015 0.600721 39.9851 -0.318324 39.1282 0.139159C31.0273 4.46415 19.4359 18.5154 13.3688 26.7699C12.9151 27.3871 11.9595 27.2948 11.6093 26.6136C10.7121 24.8686 9.33494 22.411 7.90629 20.4767Z" fill="url(#paint1_linear_1148_1272)"/>
<path d="M7.90629 20.4767C6.31032 18.316 3.21963 20.1882 1.15779 22.0267C0.601972 22.5224 0.835379 23.4564 1.43915 23.8923C4.75965 26.2897 7.71695 33.2075 9.19909 37.6464C9.41844 38.3033 10.2163 38.5654 10.7728 38.1531L15.7834 34.441C15.975 34.299 16.1041 34.1039 16.171 33.8749C17.9316 27.8471 31.6324 10.9974 39.967 1.33622C40.6015 0.600721 39.9851 -0.318324 39.1282 0.139159C31.0273 4.46415 19.4359 18.5154 13.3688 26.7699C12.9151 27.3871 11.9595 27.2948 11.6093 26.6136C10.7121 24.8686 9.33494 22.411 7.90629 20.4767Z" fill="url(#paint2_linear_1148_1272)"/>
<path d="M7.90629 20.4767C6.31032 18.316 3.21963 20.1882 1.15779 22.0267C0.601972 22.5224 0.835379 23.4564 1.43915 23.8923C4.75965 26.2897 7.71695 33.2075 9.19909 37.6464C9.41844 38.3033 10.2163 38.5654 10.7728 38.1531L15.7834 34.441C15.975 34.299 16.1041 34.1039 16.171 33.8749C17.9316 27.8471 31.6324 10.9974 39.967 1.33622C40.6015 0.600721 39.9851 -0.318324 39.1282 0.139159C31.0273 4.46415 19.4359 18.5154 13.3688 26.7699C12.9151 27.3871 11.9595 27.2948 11.6093 26.6136C10.7121 24.8686 9.33494 22.411 7.90629 20.4767Z" fill="url(#paint3_linear_1148_1272)"/>
<path d="M7.90629 20.4767C6.31032 18.316 3.21963 20.1882 1.15779 22.0267C0.601972 22.5224 0.835379 23.4564 1.43915 23.8923C4.75965 26.2897 7.71695 33.2075 9.19909 37.6464C9.41844 38.3033 10.2163 38.5654 10.7728 38.1531L15.7834 34.441C15.975 34.299 16.1041 34.1039 16.171 33.8749C17.9316 27.8471 31.6324 10.9974 39.967 1.33622C40.6015 0.600721 39.9851 -0.318324 39.1282 0.139159C31.0273 4.46415 19.4359 18.5154 13.3688 26.7699C12.9151 27.3871 11.9595 27.2948 11.6093 26.6136C10.7121 24.8686 9.33494 22.411 7.90629 20.4767Z" fill="url(#paint4_linear_1148_1272)"/>
<path d="M7.90629 20.4767C6.31032 18.316 3.21963 20.1882 1.15779 22.0267C0.601972 22.5224 0.835379 23.4564 1.43915 23.8923C4.75965 26.2897 7.71695 33.2075 9.19909 37.6464C9.41844 38.3033 10.2163 38.5654 10.7728 38.1531L15.7834 34.441C15.975 34.299 16.1041 34.1039 16.171 33.8749C17.9316 27.8471 31.6324 10.9974 39.967 1.33622C40.6015 0.600721 39.9851 -0.318324 39.1282 0.139159C31.0273 4.46415 19.4359 18.5154 13.3688 26.7699C12.9151 27.3871 11.9595 27.2948 11.6093 26.6136C10.7121 24.8686 9.33494 22.411 7.90629 20.4767Z" fill="url(#paint5_linear_1148_1272)"/>
<defs>
<linearGradient id="paint0_linear_1148_1272" x1="0.939953" y1="17.9034" x2="41.2442" y2="20.7838" gradientUnits="userSpaceOnUse">
<stop stop-color="#FF9085"/>
<stop offset="1" stop-color="#FB6FBB"/>
</linearGradient>
<linearGradient id="paint1_linear_1148_1272" x1="-0.894194" y1="-1" x2="44.5159" y2="0.844123" gradientUnits="userSpaceOnUse">
<stop stop-color="#53C4D0"/>
<stop offset="1" stop-color="#008A99"/>
</linearGradient>
<linearGradient id="paint2_linear_1148_1272" x1="-7.56393" y1="11.6418" x2="7.414" y2="37.4731" gradientUnits="userSpaceOnUse">
<stop stop-color="#34C0AE"/>
<stop offset="1" stop-color="#2394C1"/>
</linearGradient>
<linearGradient id="paint3_linear_1148_1272" x1="29.8404" y1="12.0206" x2="11.6994" y2="53.787" gradientUnits="userSpaceOnUse">
<stop stop-color="#FFC444"/>
<stop offset="1" stop-color="#F36F56"/>
</linearGradient>
<linearGradient id="paint4_linear_1148_1272" x1="16.625" y1="6.96283" x2="35.9897" y2="36.6455" gradientUnits="userSpaceOnUse">
<stop stop-color="#CC4FB3"/>
<stop offset="1" stop-color="#CA4D73"/>
</linearGradient>
<linearGradient id="paint5_linear_1148_1272" x1="-7.56393" y1="11.6418" x2="7.414" y2="37.4731" gradientUnits="userSpaceOnUse">
<stop stop-color="#33BFAD"/>
<stop offset="1" stop-color="#A1D532"/>
</linearGradient>
</defs>
</svg>
