<svg width="25" height="25" viewBox="0 0 25 25" fill="none" xmlns="http://www.w3.org/2000/svg">
<g clip-path="url(#clip0_910_811)">
<g clip-path="url(#clip1_910_811)">
<path d="M0.753915 11.6918L6.20659 13.7269L8.31711 20.5143C8.45215 20.949 8.98372 21.1097 9.33656 20.8212L12.376 18.3435C12.531 18.2172 12.7235 18.1456 12.9234 18.1401C13.1233 18.1345 13.3195 18.1952 13.4813 18.3126L18.9633 22.2927C19.3408 22.567 19.8755 22.3602 19.9702 21.9041L23.986 2.58706C24.0894 2.08885 23.5998 1.67323 23.1254 1.85671L0.747525 10.4894C0.195285 10.7024 0.200097 11.4843 0.753915 11.6918ZM7.97698 12.6436L18.6335 6.08019C18.8251 5.96258 19.0221 6.22155 18.8576 6.3741L10.0629 14.5492C9.75402 14.8365 9.55433 15.2221 9.49787 15.6401L9.19828 17.8602C9.1586 18.1567 8.74219 18.1861 8.66039 17.8992L7.50819 13.8507C7.37622 13.3889 7.56853 12.8957 7.97698 12.6436Z" fill="#C4BFBF"/>
</g>
</g>
<defs>
<clipPath id="clip0_910_811">
<rect width="24" height="24" fill="white" transform="translate(0.335938 0.28125)"/>
</clipPath>
<clipPath id="clip1_910_811">
<rect width="23.6641" height="23.6641" fill="white" transform="translate(0.335938 0.28125)"/>
</clipPath>
</defs>
</svg>
