<svg width="82" height="62" viewBox="0 0 82 62" fill="none" xmlns="http://www.w3.org/2000/svg">
<path d="M81.9697 30.1865L74.568 27.8858L80.2606 22.6263L81.9697 30.1865ZM2.85238 61.6228C2.27153 59.7918 1.78505 57.928 1.39089 56.0444L2.70491 55.7696C3.09008 57.6103 3.56521 59.4302 4.13201 61.217L2.85238 61.6228ZM0.11742 44.5994C0.0507798 40.717 0.34784 36.8544 0.993204 33.1181L2.3161 33.3467C1.68527 36.9989 1.39449 40.7771 1.4597 44.5765L0.11742 44.5994ZM4.10707 22.0207C5.58942 18.3338 7.47417 14.9254 9.74402 11.9396L10.8128 12.7522C8.62347 15.632 6.79543 18.9331 5.35265 22.5216L4.10707 22.0207ZM18.2201 4.0545C21.4533 2.01978 25.0886 0.631016 29.097 0.0566139L29.2876 1.38552C25.4717 1.93233 22.0144 3.25298 18.9352 5.19073L18.2201 4.0545ZM40.654 0.57452C44.0978 1.32052 47.7248 2.59386 51.5242 4.45652L50.9334 5.66193C47.2197 3.8413 43.6954 2.60694 40.3699 1.88657L40.654 0.57452ZM61.3907 10.3869C64.284 12.4358 67.2613 14.8079 70.3191 17.5265L69.4271 18.5298C66.4027 15.8409 63.4641 13.5 60.615 11.4825L61.3907 10.3869Z" fill="#C3C3C3"/>
</svg>
