<svg width="24" height="24" viewBox="0 0 24 24" fill="none" xmlns="http://www.w3.org/2000/svg">
<path fill-rule="evenodd" clip-rule="evenodd" d="M18.7472 3.89807C18.7478 3.89824 18.7482 3.8985 18.7492 3.89946L20.1013 5.25157C20.1023 5.25253 20.1025 5.25297 20.1027 5.25353C20.1028 5.25406 20.1028 5.25462 20.1027 5.25515C20.1025 5.25569 20.1023 5.25614 20.1013 5.2571L13.3583 12.0001L20.1013 18.7432C20.1023 18.7441 20.1025 18.7446 20.1027 18.7451C20.1029 18.7457 20.1029 18.7462 20.1027 18.7468C20.1025 18.7473 20.1023 18.7477 20.1013 18.7487L18.7492 20.1008C18.7482 20.1018 18.7478 20.102 18.7472 20.1022C18.7467 20.1024 18.7461 20.1024 18.7456 20.1022C18.7451 20.102 18.7446 20.1018 18.7437 20.1008L12.0006 13.3578L5.25759 20.1008C5.25665 20.1018 5.25618 20.102 5.25564 20.1022C5.25511 20.1024 5.25453 20.1024 5.254 20.1022C5.25348 20.102 5.25302 20.1018 5.25205 20.1008L3.89994 18.7487C3.89898 18.7477 3.89873 18.7473 3.89856 18.7467C3.8984 18.7462 3.8984 18.7456 3.89856 18.7451C3.89873 18.7446 3.89898 18.7441 3.89994 18.7432L10.643 12.0001L3.89994 5.2571C3.89898 5.25616 3.89873 5.25569 3.89856 5.25515C3.8984 5.25462 3.8984 5.25405 3.89856 5.25351C3.89873 5.253 3.89898 5.25253 3.89994 5.25157L5.25205 3.89946C5.25302 3.8985 5.25346 3.89824 5.25402 3.89807C5.25455 3.89791 5.25511 3.89791 5.25564 3.89807C5.25618 3.89824 5.25662 3.8985 5.25759 3.89946L12.0006 10.6425L18.7437 3.89946C18.7446 3.8985 18.7451 3.89824 18.7456 3.89807C18.7461 3.89791 18.7467 3.89791 18.7472 3.89807H18.7472Z" fill="black"/>
</svg>
