<svg width="22" height="23" viewBox="0 0 22 23" fill="none" xmlns="http://www.w3.org/2000/svg">
<g clip-path="url(#clip0_910_796)">
<path d="M11 22.2812C17.0751 22.2812 22 17.3564 22 11.2812C22 5.20612 17.0751 0.28125 11 0.28125C4.92487 0.28125 0 5.20612 0 11.2812C0 17.3564 4.92487 22.2812 11 22.2812Z" fill="#D3D0D0"/>
<path d="M15.3751 12.8914C14.9113 12.4336 14.3322 12.4336 13.8714 12.8914C13.5199 13.2401 13.1684 13.5887 12.8227 13.9431C12.7282 14.0406 12.6484 14.0613 12.5332 13.9963C12.3057 13.8722 12.0635 13.7718 11.8449 13.6359C10.8256 12.9948 9.97194 12.1707 9.2156 11.2431C8.84045 10.7822 8.50662 10.2888 8.27325 9.73353C8.22598 9.62124 8.23484 9.54736 8.32642 9.45578C8.67797 9.11609 9.02065 8.76751 9.3663 8.41892C9.84783 7.93445 9.84783 7.36726 9.36337 6.87983C9.0886 6.60214 8.81386 6.33037 8.53912 6.05268C8.25552 5.76909 7.97487 5.48254 7.68831 5.2019C7.22451 4.74992 6.64549 4.74992 6.18463 5.20485C5.83013 5.55344 5.4904 5.91089 5.12998 6.25356C4.79616 6.56965 4.62778 6.95664 4.59232 7.40862C4.53619 8.1442 4.7164 8.83841 4.97046 9.51491C5.4904 10.9151 6.28212 12.1588 7.24223 13.2991C8.53912 14.8412 10.0871 16.0612 11.898 16.9416C12.7134 17.3374 13.5583 17.6416 14.4771 17.6918C15.1092 17.7273 15.6588 17.5678 16.0989 17.0745C16.4003 16.7377 16.74 16.4305 17.059 16.1085C17.5317 15.6299 17.5346 15.0509 17.0649 14.5782C16.5037 14.014 15.9394 13.4527 15.3751 12.8914Z" fill="#FBFBFB"/>
</g>
<defs>
<clipPath id="clip0_910_796">
<rect width="22" height="22" fill="white" transform="translate(0 0.28125)"/>
</clipPath>
</defs>
</svg>
