<svg width="20" height="20" viewBox="0 0 20 20" fill="none" xmlns="http://www.w3.org/2000/svg">
<g clip-path="url(#clip0_599_786)">
<path d="M0.33961 9.27044L4.76996 10.924L6.48477 16.4388C6.5945 16.792 7.02641 16.9226 7.31309 16.6882L9.78264 14.675C9.90862 14.5723 10.065 14.5142 10.2274 14.5097C10.3899 14.5052 10.5492 14.5545 10.6807 14.6499L15.1349 17.8837C15.4416 18.1066 15.8761 17.9386 15.953 17.568L19.2159 1.87275C19.2999 1.46795 18.9021 1.13025 18.5167 1.27933L0.334419 8.2935C-0.114281 8.46655 -0.110372 9.10182 0.33961 9.27044ZM6.20842 10.0438L14.867 4.71095C15.0226 4.61539 15.1827 4.8258 15.0491 4.94975L7.90323 11.5921C7.65228 11.8256 7.49003 12.1388 7.44415 12.4784L7.20073 14.2823C7.1685 14.5232 6.83016 14.5471 6.7637 14.314L5.82752 11.0245C5.7203 10.6494 5.87655 10.2486 6.20842 10.0438Z" fill="url(#paint0_linear_599_786)"/>
</g>
<defs>
<linearGradient id="paint0_linear_599_786" x1="8.03485" y1="1.24341" x2="9.4743" y2="17.8593" gradientUnits="userSpaceOnUse">
<stop stop-color="#53C4D0"/>
<stop offset="1" stop-color="#008A99"/>
</linearGradient>
<clipPath id="clip0_599_786">
<rect width="19.2273" height="19.2273" fill="white"/>
</clipPath>
</defs>
</svg>
