<svg width="210" height="93" viewBox="0 0 210 93" fill="none" xmlns="http://www.w3.org/2000/svg">
<path d="M0 0.999999V83.776C0 84.2782 0.349717 84.6994 0.847881 84.763C8.52724 85.7434 66.6613 93 105 93C143.339 93 201.473 85.7434 209.152 84.763C209.65 84.6994 210 84.2782 210 83.776V1C210 0.447715 209.552 0 209 0H1C0.447715 0 0 0.447715 0 0.999999Z" fill="white" fill-opacity="0.75"/>
<path d="M10 0V70.1138C10 70.6196 10.3473 71.0419 10.8496 71.1013C18.1207 71.9607 70.4464 78 105 78C139.554 78 191.879 71.9607 199.15 71.1013C199.653 71.0419 200 70.6196 200 70.1138V0" stroke="url(#paint0_linear_1603_166)"/>
<defs>
<linearGradient id="paint0_linear_1603_166" x1="89.3988" y1="-1.0979e-07" x2="92.5796" y2="77.8701" gradientUnits="userSpaceOnUse">
<stop stop-color="#53C4D0"/>
<stop offset="1" stop-color="#008A99"/>
</linearGradient>
</defs>
</svg>
