<svg width="210" height="93" viewBox="0 0 210 93" fill="none" xmlns="http://www.w3.org/2000/svg">
<path d="M0 0.999999V83.776C0 84.2782 0.349717 84.6994 0.847881 84.763C8.52724 85.7434 66.6613 93 105 93C143.339 93 201.473 85.7434 209.152 84.763C209.65 84.6994 210 84.2782 210 83.776V1C210 0.447715 209.552 0 209 0H1C0.447715 0 0 0.447715 0 0.999999Z" fill="white" fill-opacity="0.75"/>
<path d="M10 0V70.1138C10 70.6196 10.3473 71.0419 10.8496 71.1013C18.1207 71.9607 70.4464 78 105 78C139.554 78 191.879 71.9607 199.15 71.1013C199.653 71.0419 200 70.6196 200 70.1138V0" stroke="url(#paint0_linear_1609_166)"/>
<path d="M36.3228 31.9091L32.5675 26.7635H30.9961V31.9091H30V21H30.9961V25.8739H31.9815L36.0032 21H37.1857L33.1428 25.9165L37.516 31.9091H36.3228Z" fill="#303030"/>
<path d="M41.772 32.0795C41.0653 32.0795 40.4403 31.9002 39.897 31.5415C39.3572 31.1829 38.9347 30.6875 38.6293 30.0554C38.3239 29.4197 38.1712 28.6864 38.1712 27.8555C38.1712 27.0174 38.3239 26.2805 38.6293 25.6449C38.9347 25.0057 39.3572 24.5085 39.897 24.1534C40.4403 23.7947 41.0653 23.6154 41.772 23.6154C42.4787 23.6154 43.1019 23.7947 43.6417 24.1534C44.1815 24.5121 44.604 25.0092 44.9094 25.6449C45.2184 26.2805 45.3729 27.0174 45.3729 27.8555C45.3729 28.6864 45.2202 29.4197 44.9148 30.0554C44.6094 30.6875 44.185 31.1829 43.6417 31.5415C43.1019 31.9002 42.4787 32.0795 41.772 32.0795ZM41.772 31.2113C42.3402 31.2113 42.8214 31.0586 43.2156 30.7532C43.6097 30.4478 43.908 30.0412 44.1104 29.5334C44.3164 29.0256 44.4194 28.4663 44.4194 27.8555C44.4194 27.2447 44.3164 26.6836 44.1104 26.1722C43.908 25.6609 43.6097 25.2507 43.2156 24.9418C42.8214 24.6328 42.3402 24.4783 41.772 24.4783C41.2074 24.4783 40.7262 24.6328 40.3285 24.9418C39.9343 25.2507 39.6342 25.6609 39.4283 26.1722C39.2259 26.6836 39.1246 27.2447 39.1246 27.8555C39.1246 28.4663 39.2259 29.0256 39.4283 29.5334C39.6342 30.0412 39.9343 30.4478 40.3285 30.7532C40.7227 31.0586 41.2038 31.2113 41.772 31.2113Z" fill="#303030"/>
<path d="M51.7316 30.5827L54.8051 23.7273H55.7267L52.1098 31.9091H51.3534L47.7792 23.7273H48.6847L51.7316 30.5827ZM48.4024 23.7273V31.9091H47.4543V23.7273H48.4024ZM55.0608 31.9091V23.7273H56.009V31.9091H55.0608Z" fill="#303030"/>
<path d="M60.8137 32.0955C60.32 32.0955 59.8691 31.9996 59.4607 31.8079C59.0523 31.6126 58.7274 31.332 58.4859 30.9663C58.2444 30.5969 58.1237 30.1495 58.1237 29.6239C58.1237 29.2191 58.2 28.8782 58.3527 28.6012C58.5054 28.3242 58.722 28.0969 59.0026 27.9194C59.2831 27.7418 59.6151 27.6016 59.9987 27.4986C60.3822 27.3956 60.8048 27.3157 61.2664 27.2589C61.7245 27.2021 62.1116 27.1523 62.4276 27.1097C62.7472 27.0671 62.9905 26.9996 63.1574 26.9073C63.3243 26.815 63.4078 26.6658 63.4078 26.4599V26.2681C63.4078 25.7106 63.2409 25.272 62.907 24.9524C62.5768 24.6293 62.1009 24.4677 61.4795 24.4677C60.89 24.4677 60.4088 24.5973 60.036 24.8565C59.6666 25.1158 59.4074 25.4212 59.2583 25.7727L58.358 25.4478C58.5427 25.0004 58.7984 24.6435 59.1251 24.3771C59.4518 24.1072 59.8176 23.9137 60.2224 23.7965C60.6272 23.6758 61.0374 23.6154 61.4529 23.6154C61.7654 23.6154 62.0903 23.6563 62.4276 23.7379C62.7686 23.8196 63.0846 23.9616 63.3758 24.1641C63.667 24.3629 63.9031 24.6417 64.0843 25.0004C64.2654 25.3555 64.3559 25.8065 64.3559 26.3533V31.9091H63.4078V30.6147H63.3492C63.2355 30.8562 63.0668 31.0906 62.8431 31.3178C62.6194 31.5451 62.3389 31.7315 62.0015 31.8771C61.6642 32.0227 61.2682 32.0955 60.8137 32.0955ZM60.9415 31.2273C61.4458 31.2273 61.8825 31.1154 62.2519 30.8917C62.6212 30.668 62.9053 30.3714 63.1041 30.0021C63.3066 29.6293 63.4078 29.2191 63.4078 28.7717V27.5891C63.3367 27.6566 63.2178 27.717 63.0509 27.7702C62.8875 27.8235 62.6975 27.8714 62.4809 27.9141C62.2678 27.9531 62.0548 27.9869 61.8417 28.0153C61.6286 28.0437 61.4369 28.0685 61.2664 28.0898C60.8048 28.1467 60.4106 28.2354 60.0839 28.3562C59.7572 28.4769 59.5068 28.6438 59.3328 28.8569C59.1588 29.0664 59.0718 29.3363 59.0718 29.6665C59.0718 30.1637 59.2494 30.549 59.6045 30.8224C59.9596 31.0923 60.4053 31.2273 60.9415 31.2273Z" fill="#303030"/>
<path d="M72.4019 27.3761V28.271H67.5919V27.3761H72.4019ZM67.8263 23.7273V31.9091H66.8781V23.7273H67.8263ZM73.0997 23.7273V31.9091H72.1515V23.7273H73.0997Z" fill="#303030"/>
<path d="M74.6538 34.2369V31.0142H75.3622C75.5398 30.8153 75.6942 30.6005 75.8256 30.3697C75.957 30.1388 76.0707 29.8761 76.1665 29.5813C76.266 29.283 76.3494 28.9368 76.4169 28.5426C76.4844 28.1449 76.5412 27.6815 76.5874 27.1523L76.8857 23.7273H81.7276V31.0142H82.9421V34.2369H81.994V31.9091H75.6072V34.2369H74.6538ZM76.4542 31.0142H80.7795V24.6222H77.7699L77.5249 27.1523C77.4396 28.0117 77.3189 28.761 77.1626 29.4002C77.0064 30.0394 76.7702 30.5774 76.4542 31.0142Z" fill="#303030"/>
<path d="M87.0344 32.0955C86.5408 32.0955 86.0898 31.9996 85.6814 31.8079C85.273 31.6126 84.9481 31.332 84.7066 30.9663C84.4651 30.5969 84.3444 30.1495 84.3444 29.6239C84.3444 29.2191 84.4207 28.8782 84.5734 28.6012C84.7261 28.3242 84.9427 28.0969 85.2233 27.9194C85.5038 27.7418 85.8358 27.6016 86.2194 27.4986C86.6029 27.3956 87.0255 27.3157 87.4871 27.2589C87.9452 27.2021 88.3323 27.1523 88.6483 27.1097C88.968 27.0671 89.2112 26.9996 89.3781 26.9073C89.545 26.815 89.6285 26.6658 89.6285 26.4599V26.2681C89.6285 25.7106 89.4616 25.272 89.1278 24.9524C88.7975 24.6293 88.3216 24.4677 87.7002 24.4677C87.1107 24.4677 86.6295 24.5973 86.2567 24.8565C85.8873 25.1158 85.6281 25.4212 85.479 25.7727L84.5787 25.4478C84.7634 25.0004 85.0191 24.6435 85.3458 24.3771C85.6725 24.1072 86.0383 23.9137 86.4431 23.7965C86.8479 23.6758 87.2581 23.6154 87.6736 23.6154C87.9861 23.6154 88.311 23.6563 88.6483 23.7379C88.9893 23.8196 89.3053 23.9616 89.5965 24.1641C89.8877 24.3629 90.1238 24.6417 90.305 25.0004C90.4861 25.3555 90.5766 25.8065 90.5766 26.3533V31.9091H89.6285V30.6147H89.5699C89.4562 30.8562 89.2876 31.0906 89.0638 31.3178C88.8401 31.5451 88.5596 31.7315 88.2222 31.8771C87.8849 32.0227 87.4889 32.0955 87.0344 32.0955ZM87.1622 31.2273C87.6665 31.2273 88.1033 31.1154 88.4726 30.8917C88.8419 30.668 89.126 30.3714 89.3248 30.0021C89.5273 29.6293 89.6285 29.2191 89.6285 28.7717V27.5891C89.5574 27.6566 89.4385 27.717 89.2716 27.7702C89.1082 27.8235 88.9182 27.8714 88.7016 27.9141C88.4885 27.9531 88.2755 27.9869 88.0624 28.0153C87.8493 28.0437 87.6576 28.0685 87.4871 28.0898C87.0255 28.1467 86.6313 28.2354 86.3046 28.3562C85.9779 28.4769 85.7275 28.6438 85.5535 28.8569C85.3795 29.0664 85.2925 29.3363 85.2925 29.6665C85.2925 30.1637 85.4701 30.549 85.8252 30.8224C86.1803 31.0923 86.626 31.2273 87.1622 31.2273Z" fill="#303030"/>
<path d="M97.3282 31.9091V23.7273H103.523V31.9091H102.57V24.6222H98.2817V31.9091H97.3282Z" fill="#303030"/>
<path d="M109.229 32.0795C108.498 32.0795 107.86 31.8967 107.317 31.5309C106.777 31.1651 106.358 30.6644 106.06 30.0288C105.762 29.3931 105.613 28.6687 105.613 27.8555C105.613 27.0352 105.763 26.3054 106.065 25.6662C106.371 25.027 106.793 24.5263 107.333 24.1641C107.873 23.7983 108.5 23.6154 109.213 23.6154C109.76 23.6154 110.256 23.7219 110.7 23.935C111.143 24.1445 111.509 24.4411 111.797 24.8246C112.088 25.2045 112.271 25.6484 112.346 26.1562H111.387C111.287 25.6946 111.048 25.3004 110.668 24.9737C110.291 24.6435 109.812 24.4783 109.229 24.4783C108.707 24.4783 108.246 24.6204 107.844 24.9045C107.443 25.185 107.129 25.5774 106.902 26.0817C106.678 26.5824 106.566 27.163 106.566 27.8235C106.566 28.4876 106.676 29.0753 106.896 29.5866C107.116 30.0945 107.425 30.4922 107.823 30.7798C108.224 31.0675 108.693 31.2113 109.229 31.2113C109.592 31.2113 109.922 31.1438 110.22 31.0089C110.522 30.8704 110.774 30.6751 110.977 30.4229C111.183 30.1708 111.321 29.8707 111.392 29.5227H112.351C112.28 30.0163 112.104 30.4567 111.824 30.8438C111.547 31.2273 111.186 31.5291 110.742 31.7493C110.302 31.9695 109.798 32.0795 109.229 32.0795Z" fill="#303030"/>
<path d="M115.331 30.5614L119.651 23.7273H120.786V31.9091H119.838V25.0749L115.534 31.9091H114.383V23.7273H115.331V30.5614Z" fill="#303030"/>
<path d="M123.875 23.7273L125.985 27.2163L128.094 23.7273H129.197L126.565 27.8182L129.197 31.9091H128.094L125.985 28.532L123.875 31.9091H122.778L125.377 27.8182L122.778 23.7273H123.875Z" fill="#303030"/>
<path d="M134.028 32.0795C133.321 32.0795 132.696 31.9002 132.153 31.5415C131.613 31.1829 131.191 30.6875 130.885 30.0554C130.58 29.4197 130.427 28.6864 130.427 27.8555C130.427 27.0174 130.58 26.2805 130.885 25.6449C131.191 25.0057 131.613 24.5085 132.153 24.1534C132.696 23.7947 133.321 23.6154 134.028 23.6154C134.735 23.6154 135.358 23.7947 135.898 24.1534C136.437 24.5121 136.86 25.0092 137.165 25.6449C137.474 26.2805 137.629 27.0174 137.629 27.8555C137.629 28.6864 137.476 29.4197 137.171 30.0554C136.865 30.6875 136.441 31.1829 135.898 31.5415C135.358 31.9002 134.735 32.0795 134.028 32.0795ZM134.028 31.2113C134.596 31.2113 135.077 31.0586 135.471 30.7532C135.866 30.4478 136.164 30.0412 136.366 29.5334C136.572 29.0256 136.675 28.4663 136.675 27.8555C136.675 27.2447 136.572 26.6836 136.366 26.1722C136.164 25.6609 135.866 25.2507 135.471 24.9418C135.077 24.6328 134.596 24.4783 134.028 24.4783C133.463 24.4783 132.982 24.6328 132.584 24.9418C132.19 25.2507 131.89 25.6609 131.684 26.1722C131.482 26.6836 131.381 27.2447 131.381 27.8555C131.381 28.4663 131.482 29.0256 131.684 29.5334C131.89 30.0412 132.19 30.4478 132.584 30.7532C132.979 31.0586 133.46 31.2113 134.028 31.2113Z" fill="#303030"/>
<path d="M138.906 31.9091V31.0142H139.161C139.453 31.0142 139.687 30.9609 139.865 30.8544C140.046 30.7443 140.186 30.5597 140.285 30.3004C140.385 30.0412 140.459 29.6879 140.509 29.2404C140.559 28.793 140.598 28.2319 140.626 27.5572L140.802 23.7273H146.001V31.9091H145.048V24.6222H141.702L141.548 27.8768C141.516 28.5408 141.463 29.125 141.388 29.6293C141.317 30.1335 141.2 30.5543 141.036 30.8917C140.877 31.229 140.653 31.483 140.365 31.6534C140.081 31.8239 139.708 31.9091 139.247 31.9091H138.906Z" fill="#303030"/>
<path d="M151.694 32.0795C150.987 32.0795 150.362 31.9002 149.819 31.5415C149.279 31.1829 148.857 30.6875 148.551 30.0554C148.246 29.4197 148.093 28.6864 148.093 27.8555C148.093 27.0174 148.246 26.2805 148.551 25.6449C148.857 25.0057 149.279 24.5085 149.819 24.1534C150.362 23.7947 150.987 23.6154 151.694 23.6154C152.401 23.6154 153.024 23.7947 153.564 24.1534C154.103 24.5121 154.526 25.0092 154.831 25.6449C155.14 26.2805 155.295 27.0174 155.295 27.8555C155.295 28.6864 155.142 29.4197 154.837 30.0554C154.531 30.6875 154.107 31.1829 153.564 31.5415C153.024 31.9002 152.401 32.0795 151.694 32.0795ZM151.694 31.2113C152.262 31.2113 152.743 31.0586 153.137 30.7532C153.532 30.4478 153.83 30.0412 154.032 29.5334C154.238 29.0256 154.341 28.4663 154.341 27.8555C154.341 27.2447 154.238 26.6836 154.032 26.1722C153.83 25.6609 153.532 25.2507 153.137 24.9418C152.743 24.6328 152.262 24.4783 151.694 24.4783C151.129 24.4783 150.648 24.6328 150.25 24.9418C149.856 25.2507 149.556 25.6609 149.35 26.1722C149.148 26.6836 149.047 27.2447 149.047 27.8555C149.047 28.4663 149.148 29.0256 149.35 29.5334C149.556 30.0412 149.856 30.4478 150.25 30.7532C150.645 31.0586 151.126 31.2113 151.694 31.2113Z" fill="#303030"/>
<path d="M162.239 23.7273V24.6222H158.324V31.9091H157.376V23.7273H162.239Z" fill="#303030"/>
<path d="M166.987 32.0795C166.28 32.0795 165.655 31.9002 165.112 31.5415C164.572 31.1829 164.149 30.6875 163.844 30.0554C163.539 29.4197 163.386 28.6864 163.386 27.8555C163.386 27.0174 163.539 26.2805 163.844 25.6449C164.149 25.0057 164.572 24.5085 165.112 24.1534C165.655 23.7947 166.28 23.6154 166.987 23.6154C167.694 23.6154 168.317 23.7947 168.857 24.1534C169.396 24.5121 169.819 25.0092 170.124 25.6449C170.433 26.2805 170.588 27.0174 170.588 27.8555C170.588 28.6864 170.435 29.4197 170.13 30.0554C169.824 30.6875 169.4 31.1829 168.857 31.5415C168.317 31.9002 167.694 32.0795 166.987 32.0795ZM166.987 31.2113C167.555 31.2113 168.036 31.0586 168.43 30.7532C168.825 30.4478 169.123 30.0412 169.325 29.5334C169.531 29.0256 169.634 28.4663 169.634 27.8555C169.634 27.2447 169.531 26.6836 169.325 26.1722C169.123 25.6609 168.825 25.2507 168.43 24.9418C168.036 24.6328 167.555 24.4783 166.987 24.4783C166.422 24.4783 165.941 24.6328 165.543 24.9418C165.149 25.2507 164.849 25.6609 164.643 26.1722C164.441 26.6836 164.339 27.2447 164.339 27.8555C164.339 28.4663 164.441 29.0256 164.643 29.5334C164.849 30.0412 165.149 30.4478 165.543 30.7532C165.937 31.0586 166.419 31.2113 166.987 31.2113Z" fill="#303030"/>
<path d="M172.669 31.9091V23.7273H175.892C176.762 23.7273 177.447 23.9155 177.948 24.2919C178.452 24.6683 178.704 25.1761 178.704 25.8153C178.704 26.3018 178.564 26.6907 178.283 26.9819C178.003 27.2731 177.627 27.479 177.154 27.5998C177.47 27.6531 177.763 27.7685 178.033 27.946C178.307 28.1236 178.528 28.358 178.699 28.6491C178.869 28.9403 178.955 29.2884 178.955 29.6932C178.955 30.1193 178.848 30.4993 178.635 30.8331C178.422 31.1669 178.122 31.4297 177.735 31.6214C177.348 31.8132 176.89 31.9091 176.361 31.9091H172.669ZM173.575 31.0302H176.361C176.861 31.0302 177.257 30.9023 177.548 30.6467C177.84 30.3874 177.985 30.043 177.985 29.6133C177.985 29.1552 177.847 28.7894 177.57 28.516C177.296 28.239 176.929 28.1005 176.467 28.1005H173.575V31.0302ZM173.575 27.2589H175.95C176.32 27.2589 176.639 27.2021 176.909 27.0884C177.179 26.9748 177.387 26.815 177.532 26.609C177.682 26.3995 177.754 26.1545 177.751 25.8739C177.751 25.4727 177.587 25.1619 177.261 24.9418C176.934 24.718 176.478 24.6062 175.892 24.6062H173.575V27.2589Z" fill="#303030"/>
<path d="M50.318 50.4545C50.318 51.5909 50.1156 52.5799 49.7108 53.4215C49.306 54.2596 48.7484 54.9094 48.0382 55.3711C47.3315 55.8292 46.5183 56.0582 45.5986 56.0582C44.6788 56.0582 43.8639 55.8292 43.1536 55.3711C42.447 54.9094 41.8912 54.2596 41.4864 53.4215C41.0851 52.5799 40.8845 51.5909 40.8845 50.4545C40.8845 49.3182 41.0851 48.331 41.4864 47.4929C41.8912 46.6513 42.4487 46.0014 43.159 45.5433C43.8692 45.0817 44.6824 44.8509 45.5986 44.8509C46.5183 44.8509 47.3315 45.0817 48.0382 45.5433C48.7484 46.0014 49.306 46.6513 49.7108 47.4929C50.1156 48.331 50.318 49.3182 50.318 50.4545ZM49.3486 50.4545C49.3486 49.478 49.1852 48.6417 48.8585 47.9457C48.5318 47.2461 48.0862 46.7116 47.5215 46.3423C46.9569 45.973 46.3159 45.7884 45.5986 45.7884C44.8848 45.7884 44.2456 45.973 43.681 46.3423C43.1163 46.7116 42.6689 47.2443 42.3386 47.9403C42.0119 48.6364 41.8486 49.4744 41.8486 50.4545C41.8486 51.4311 42.0119 52.2674 42.3386 52.9634C42.6653 53.6594 43.111 54.1939 43.6756 54.5668C44.2403 54.9361 44.8813 55.1207 45.5986 55.1207C46.3159 55.1207 46.9569 54.9361 47.5215 54.5668C48.0897 54.1974 48.5372 53.6648 48.8639 52.9688C49.1906 52.2692 49.3521 51.4311 49.3486 50.4545Z" fill="#303030"/>
<path d="M51.7256 55.9091V55.0142H51.9813C52.2725 55.0142 52.5069 54.9609 52.6844 54.8544C52.8655 54.7443 53.0058 54.5597 53.1052 54.3004C53.2047 54.0412 53.2793 53.6879 53.329 53.2404C53.3787 52.793 53.4177 52.2319 53.4462 51.5572L53.6219 47.7273H58.8208V55.9091H57.8673V48.6222H54.5222L54.3677 51.8768C54.3357 52.5408 54.2824 53.125 54.2079 53.6293C54.1369 54.1335 54.0197 54.5543 53.8563 54.8917C53.6965 55.2291 53.4728 55.483 53.1851 55.6534C52.9011 55.8239 52.5282 55.9091 52.0665 55.9091H51.7256Z" fill="#303030"/>
<path d="M62.122 50.886H64.5137C65.4335 50.886 66.1437 51.1097 66.6444 51.5572C67.1451 52.0046 67.3955 52.6101 67.3955 53.3736C67.3955 53.8814 67.2836 54.3253 67.0599 54.7053C66.8362 55.0852 66.5095 55.3817 66.0798 55.5948C65.6501 55.8043 65.1281 55.9091 64.5137 55.9091H61.3337V47.7273H62.2818V55.0142H64.5137C65.0926 55.0142 65.5595 54.8757 65.9146 54.5987C66.2698 54.3217 66.4473 53.9276 66.4473 53.4162C66.4473 52.8942 66.2698 52.4911 65.9146 52.207C65.5595 51.9229 65.0926 51.7809 64.5137 51.7809H62.122V50.886Z" fill="#303030"/>
<path d="M74.3415 47.7273V48.6222H70.4264V55.9091H69.4782V47.7273H74.3415Z" fill="#303030"/>
<path d="M77.2818 54.5614L81.6018 47.7273H82.7364V55.9091H81.7882V49.0749L77.4842 55.9091H76.3337V47.7273H77.2818V54.5614Z" fill="#303030"/>
<path d="M89.6558 55.9091V45H93.1767C93.9509 45 94.5972 45.1491 95.1156 45.4474C95.6377 45.7422 96.0301 46.1435 96.2928 46.6513C96.5592 47.1591 96.6923 47.7308 96.6923 48.3665C96.6923 49.0021 96.5609 49.5756 96.2982 50.087C96.0354 50.5948 95.6448 50.9979 95.1263 51.2962C94.6078 51.5909 93.9633 51.7383 93.1927 51.7383H90.4228V50.8434H93.1661C93.7378 50.8434 94.2119 50.7369 94.5883 50.5238C94.9647 50.3072 95.2453 50.0124 95.4299 49.6396C95.6181 49.2667 95.7122 48.8423 95.7122 48.3665C95.7122 47.8906 95.6181 47.4663 95.4299 47.0934C95.2453 46.7205 94.9629 46.4276 94.583 46.2145C94.2065 46.0014 93.7289 45.8949 93.1501 45.8949H90.6519V55.9091H89.6558Z" fill="#303030"/>
<path d="M101.926 56.0795C101.219 56.0795 100.594 55.9002 100.051 55.5415C99.5111 55.1829 99.0885 54.6875 98.7831 54.0554C98.4777 53.4197 98.325 52.6864 98.325 51.8555C98.325 51.0174 98.4777 50.2805 98.7831 49.6449C99.0885 49.0057 99.5111 48.5085 100.051 48.1534C100.594 47.7947 101.219 47.6154 101.926 47.6154C102.633 47.6154 103.256 47.7947 103.796 48.1534C104.335 48.5121 104.758 49.0092 105.063 49.6449C105.372 50.2805 105.527 51.0174 105.527 51.8555C105.527 52.6864 105.374 53.4197 105.069 54.0554C104.763 54.6875 104.339 55.1829 103.796 55.5415C103.256 55.9002 102.633 56.0795 101.926 56.0795ZM101.926 55.2113C102.494 55.2113 102.975 55.0586 103.369 54.7532C103.764 54.4478 104.062 54.0412 104.264 53.5334C104.47 53.0256 104.573 52.4663 104.573 51.8555C104.573 51.2447 104.47 50.6836 104.264 50.1722C104.062 49.6609 103.764 49.2507 103.369 48.9418C102.975 48.6328 102.494 48.4783 101.926 48.4783C101.361 48.4783 100.88 48.6328 100.482 48.9418C100.088 49.2507 99.788 49.6609 99.5821 50.1722C99.3797 50.6836 99.2785 51.2447 99.2785 51.8555C99.2785 52.4663 99.3797 53.0256 99.5821 53.5334C99.788 54.0412 100.088 54.4478 100.482 54.7532C100.876 55.0586 101.358 55.2113 101.926 55.2113Z" fill="#303030"/>
<path d="M111.885 54.5827L114.959 47.7273H115.88L112.264 55.9091H111.507L107.933 47.7273H108.839L111.885 54.5827ZM108.556 47.7273V55.9091H107.608V47.7273H108.556ZM115.215 55.9091V47.7273H116.163V55.9091H115.215Z" fill="#303030"/>
<path d="M121.99 56.0795C121.227 56.0795 120.566 55.902 120.009 55.5469C119.451 55.1882 119.02 54.6928 118.714 54.0607C118.412 53.4251 118.261 52.6935 118.261 51.8661C118.261 51.0423 118.412 50.3107 118.714 49.6715C119.02 49.0288 119.44 48.5263 119.977 48.1641C120.516 47.7983 121.14 47.6154 121.846 47.6154C122.29 47.6154 122.718 47.6971 123.13 47.8604C123.542 48.0202 123.911 48.267 124.238 48.6009C124.568 48.9311 124.829 49.3484 125.021 49.8526C125.213 50.3533 125.309 50.9464 125.309 51.6317V52.1005H118.917V51.2642H124.339C124.339 50.7386 124.233 50.2663 124.02 49.8473C123.81 49.4247 123.517 49.0909 123.141 48.8459C122.768 48.6009 122.336 48.4783 121.846 48.4783C121.328 48.4783 120.872 48.6168 120.477 48.8938C120.083 49.1708 119.774 49.5366 119.551 49.9911C119.33 50.4457 119.219 50.9428 119.215 51.4826V51.9833C119.215 52.6332 119.327 53.2013 119.551 53.6879C119.778 54.1708 120.099 54.5455 120.515 54.8118C120.93 55.0781 121.422 55.2113 121.99 55.2113C122.377 55.2113 122.716 55.1509 123.008 55.0302C123.302 54.9094 123.549 54.7479 123.748 54.5455C123.95 54.3395 124.103 54.114 124.206 53.869L125.106 54.1619C124.982 54.5064 124.778 54.8242 124.494 55.1154C124.213 55.4066 123.862 55.641 123.439 55.8185C123.02 55.9925 122.537 56.0795 121.99 56.0795Z" fill="#303030"/>
<path d="M132.922 51.3761V52.271H128.112V51.3761H132.922ZM128.346 47.7273V55.9091H127.398V47.7273H128.346ZM133.62 47.7273V55.9091H132.672V47.7273H133.62Z" fill="#303030"/>
<path d="M139.339 56.0795C138.608 56.0795 137.97 55.8967 137.427 55.5309C136.887 55.1651 136.468 54.6644 136.17 54.0288C135.872 53.3931 135.722 52.6687 135.722 51.8555C135.722 51.0352 135.873 50.3054 136.175 49.6662C136.481 49.027 136.903 48.5263 137.443 48.1641C137.983 47.7983 138.61 47.6154 139.323 47.6154C139.87 47.6154 140.366 47.7219 140.809 47.935C141.253 48.1445 141.619 48.4411 141.907 48.8246C142.198 49.2045 142.381 49.6484 142.455 50.1562H141.497C141.397 49.6946 141.157 49.3004 140.777 48.9737C140.401 48.6435 139.922 48.4783 139.339 48.4783C138.817 48.4783 138.356 48.6204 137.954 48.9045C137.553 49.185 137.239 49.5774 137.011 50.0817C136.788 50.5824 136.676 51.163 136.676 51.8235C136.676 52.4876 136.786 53.0753 137.006 53.5866C137.226 54.0945 137.535 54.4922 137.933 54.7798C138.334 55.0675 138.803 55.2113 139.339 55.2113C139.701 55.2113 140.032 55.1438 140.33 55.0089C140.632 54.8704 140.884 54.6751 141.086 54.4229C141.292 54.1708 141.431 53.8707 141.502 53.5227H142.461C142.39 54.0163 142.214 54.4567 141.933 54.8438C141.656 55.2273 141.296 55.5291 140.852 55.7493C140.412 55.9695 139.907 56.0795 139.339 56.0795Z" fill="#303030"/>
<path d="M144.493 55.9091V47.7273H145.441V51.408H146.331L149.372 47.7273H150.597L147.316 51.6637L150.672 55.9091H149.447L146.624 52.3029H145.441V55.9091H144.493Z" fill="#303030"/>
<path d="M155.07 56.0795C154.364 56.0795 153.739 55.9002 153.195 55.5415C152.656 55.1829 152.233 54.6875 151.928 54.0554C151.622 53.4197 151.47 52.6864 151.47 51.8555C151.47 51.0174 151.622 50.2805 151.928 49.6449C152.233 49.0057 152.656 48.5085 153.195 48.1534C153.739 47.7947 154.364 47.6154 155.07 47.6154C155.777 47.6154 156.4 47.7947 156.94 48.1534C157.48 48.5121 157.902 49.0092 158.208 49.6449C158.517 50.2805 158.671 51.0174 158.671 51.8555C158.671 52.6864 158.519 53.4197 158.213 54.0554C157.908 54.6875 157.483 55.1829 156.94 55.5415C156.4 55.9002 155.777 56.0795 155.07 56.0795ZM155.07 55.2113C155.639 55.2113 156.12 55.0586 156.514 54.7532C156.908 54.4478 157.206 54.0412 157.409 53.5334C157.615 53.0256 157.718 52.4663 157.718 51.8555C157.718 51.2447 157.615 50.6836 157.409 50.1722C157.206 49.6609 156.908 49.2507 156.514 48.9418C156.12 48.6328 155.639 48.4783 155.07 48.4783C154.506 48.4783 154.025 48.6328 153.627 48.9418C153.233 49.2507 152.933 49.6609 152.727 50.1722C152.524 50.6836 152.423 51.2447 152.423 51.8555C152.423 52.4663 152.524 53.0256 152.727 53.5334C152.933 54.0412 153.233 54.4478 153.627 54.7532C154.021 55.0586 154.502 55.2113 155.07 55.2113Z" fill="#303030"/>
<path d="M161.701 54.5614L166.021 47.7273H167.155V55.9091H166.207V49.0749L161.903 55.9091H160.753V47.7273H161.701V54.5614ZM164.934 45H165.829C165.829 45.5078 165.66 45.9197 165.323 46.2358C164.989 46.5518 164.533 46.7099 163.954 46.7099C163.382 46.7099 162.929 46.5518 162.596 46.2358C162.262 45.9197 162.095 45.5078 162.095 45H162.99C162.99 45.277 163.064 45.5114 163.214 45.7031C163.366 45.8913 163.613 45.9854 163.954 45.9854C164.295 45.9854 164.543 45.8913 164.7 45.7031C164.856 45.5114 164.934 45.277 164.934 45Z" fill="#303030"/>
<defs>
<linearGradient id="paint0_linear_1609_166" x1="89.3988" y1="-1.0979e-07" x2="92.5796" y2="77.8701" gradientUnits="userSpaceOnUse">
<stop stop-color="#53C4D0"/>
<stop offset="1" stop-color="#008A99"/>
</linearGradient>
</defs>
</svg>
