<svg width="140" height="95" viewBox="0 0 140 95" fill="none" xmlns="http://www.w3.org/2000/svg">
<path d="M139.518 3.53496L131.204 11.5482L128.422 0.341568L139.518 3.53496ZM0.0854094 92.7141C1.2377 91.4797 2.42106 90.1968 3.63943 88.8699L5.11257 90.2227C3.89254 91.5513 2.70503 92.8388 1.5474 94.0789L0.0854094 92.7141ZM10.7569 81.1168C13.0461 78.6399 15.4507 76.0684 17.9857 73.4295L19.428 74.815C16.9048 77.4417 14.5095 80.0031 12.2257 82.4742L10.7569 81.1168ZM25.3902 65.9323C27.8292 63.5364 30.3791 61.1076 33.0504 58.6637L34.4004 60.1393C31.7483 62.5657 29.2156 64.978 26.7917 67.359L25.3902 65.9323ZM40.9856 51.6858C43.6148 49.4668 46.3512 47.2491 49.2025 45.0456L50.4254 46.6282C47.598 48.8131 44.884 51.0127 42.2756 53.2142L40.9856 51.6858ZM57.7056 38.7741C60.5265 36.7907 63.4502 34.8298 66.4825 32.9014L67.5557 34.5891C64.5503 36.5004 61.6523 38.444 58.8559 40.4102L57.7056 38.7741ZM75.5227 27.4454C78.5201 25.731 81.6149 24.0525 84.8118 22.4178L85.7224 24.1985C82.5537 25.8188 79.4864 27.4823 76.5157 29.1815L75.5227 27.4454ZM94.3352 17.8242C97.4804 16.3957 100.717 15.0113 104.049 13.677L104.792 15.5337C101.489 16.8566 98.2801 18.2291 95.1622 19.6452L94.3352 17.8242ZM113.934 9.96979C117.198 8.82686 120.547 7.73231 123.983 6.69107L124.563 8.60513C121.154 9.63813 117.832 10.7239 114.595 11.8574L113.934 9.96979Z" fill="#C3C3C3"/>
</svg>
