<svg width="45" height="30" viewBox="0 0 45 30" fill="none" xmlns="http://www.w3.org/2000/svg">
<path d="M43.9049 29.668L40.7526 26.7116L44.889 25.4598L43.9049 29.668ZM0.511861 25.158C0.501173 24.4592 0.516375 23.7655 0.556308 23.0783L1.30359 23.1217C1.26471 23.7908 1.24991 24.4662 1.26032 25.1465L0.511861 25.158ZM1.10129 18.9578C1.38793 17.58 1.77365 16.2439 2.24769 14.9627L2.94972 15.2224C2.48858 16.4688 2.11318 17.7691 1.83414 19.1103L1.10129 18.9578ZM3.98624 11.1857C4.67643 9.95136 5.45538 8.79528 6.31012 7.73403L6.89309 8.20355C6.06549 9.23111 5.30992 10.3522 4.63958 11.551L3.98624 11.1857ZM9.21451 4.74396C10.3005 3.82438 11.4609 3.0368 12.679 2.40343L13.0243 3.06755C11.8589 3.67357 10.7445 4.42925 9.69822 5.31522L9.21451 4.74396ZM16.6113 0.960759C17.9717 0.659922 19.3736 0.547997 20.7975 0.648827L20.7446 1.3955C19.3948 1.29992 18.0652 1.40588 16.7729 1.69164L16.6113 0.960759ZM24.8914 1.53032C26.1374 1.98295 27.3831 2.609 28.6166 3.42174L28.2047 4.04679C27.0173 3.26441 25.8238 2.66544 24.6358 2.23388L24.8914 1.53032ZM31.8679 6.04047C32.8061 6.94184 33.7304 7.96406 34.6354 9.11354L34.0472 9.57659C33.162 8.45221 32.2607 7.45594 31.3493 6.58026L31.8679 6.04047ZM37.0204 12.5188C37.7129 13.6247 38.3901 14.8158 39.0493 16.0957L38.3838 16.4385C37.7336 15.176 37.0667 14.0031 36.386 12.9161L37.0204 12.5188ZM40.8069 19.8244C41.33 21.0356 41.8387 22.3115 42.3313 23.6541L41.6285 23.9119C41.1405 22.5817 40.637 21.3189 40.1197 20.1212L40.8069 19.8244Z" fill="#C3C3C3"/>
</svg>
