<svg width="164" height="161" viewBox="0 0 164 161" fill="none" xmlns="http://www.w3.org/2000/svg">
<path d="M110.195 80.4996L67.8372 105.074L67.8372 55.9248L110.195 80.4996Z" fill="url(#paint0_linear_910_972)"/>
<path d="M129.562 101.484C129.851 100.523 130.328 99.7178 130.992 99.0681C131.653 98.4278 132.43 97.9936 133.323 97.7655C134.213 97.5468 135.131 97.5744 136.077 97.8485C137.022 98.1226 137.808 98.5888 138.434 99.2472C139.057 99.9149 139.469 100.694 139.669 101.584C139.866 102.483 139.82 103.413 139.53 104.374C139.316 105.084 139.003 105.703 138.589 106.232C138.184 106.764 137.694 107.175 137.118 107.465L136.79 106.883C137.803 106.324 138.493 105.433 138.862 104.211C139.109 103.39 139.147 102.589 138.975 101.809C138.803 101.028 138.442 100.351 137.893 99.7753C137.353 99.2027 136.676 98.7984 135.862 98.5623C135.047 98.3262 134.25 98.3032 133.47 98.4931C132.7 98.6857 132.026 99.0636 131.449 99.627C130.873 100.19 130.46 100.882 130.213 101.704C129.848 102.917 129.938 104.034 130.486 105.055L129.887 105.368C129.565 104.818 129.378 104.206 129.326 103.532C129.272 102.867 129.351 102.184 129.562 101.484Z" fill="#303030"/>
<path d="M128.035 118.924L121.405 115.146L121.748 114.568L127.361 117.766L124.289 112.197L124.461 111.908L130.894 111.772L125.293 108.58L125.635 108.002L132.266 111.779L131.901 112.396L125.126 112.506L128.378 118.345L128.035 118.924Z" fill="#303030"/>
<path d="M115.707 119.475C116.209 118.957 116.784 118.601 117.434 118.407C118.076 118.22 118.726 118.207 119.385 118.368C120.05 118.535 120.654 118.871 121.195 119.377C121.737 119.882 122.107 120.452 122.304 121.089C122.508 121.733 122.531 122.374 122.373 123.013C122.209 123.659 121.876 124.24 121.374 124.758C120.872 125.276 120.3 125.629 119.658 125.816C119.008 126.01 118.351 126.023 117.686 125.856C117.027 125.695 116.427 125.362 115.886 124.857C115.344 124.352 114.971 123.778 114.767 123.134C114.569 122.498 114.553 121.856 114.718 121.21C114.875 120.572 115.205 119.993 115.707 119.475ZM116.188 119.924C115.781 120.344 115.518 120.811 115.399 121.326C115.273 121.848 115.297 122.37 115.47 122.891C115.637 123.419 115.948 123.896 116.404 124.322C116.861 124.747 117.362 125.028 117.908 125.164C118.448 125.307 118.98 125.304 119.505 125.154C120.023 125.011 120.486 124.73 120.893 124.31C121.3 123.89 121.566 123.419 121.692 122.897C121.811 122.382 121.787 121.86 121.621 121.332C121.448 120.811 121.133 120.337 120.677 119.912C120.22 119.487 119.723 119.202 119.183 119.059C118.637 118.923 118.104 118.926 117.586 119.069C117.061 119.219 116.595 119.504 116.188 119.924Z" fill="#303030"/>
<path d="M108.975 132.505L111.452 130.844L107.465 125.123L108.072 124.716L112.059 130.437L114.535 128.776L114.912 129.315L109.351 133.044L108.975 132.505Z" fill="#303030"/>
<path d="M101.801 136.191C101.156 136.49 100.5 136.611 99.8347 136.555C99.1692 136.498 98.5638 136.273 98.0184 135.882C97.4641 135.494 97.0242 134.962 96.6988 134.286C96.3733 133.61 96.232 132.934 96.2749 132.259C96.3131 131.597 96.5212 130.996 96.8992 130.456C97.2815 129.924 97.7954 129.509 98.441 129.21C99.0511 128.928 99.6715 128.812 100.302 128.864C100.937 128.924 101.514 129.146 102.033 129.528L100.048 125.405L100.712 125.098L105.251 134.529L104.614 134.824L103.835 133.204C103.814 133.858 103.626 134.444 103.27 134.963C102.91 135.495 102.42 135.905 101.801 136.191ZM98.7661 129.785C98.2355 130.03 97.8171 130.374 97.511 130.817C97.2049 131.259 97.0381 131.755 97.0107 132.305C96.9744 132.859 97.0915 133.417 97.362 133.979C97.6325 134.541 97.9972 134.984 98.4562 135.308C98.9063 135.637 99.4027 135.826 99.9456 135.875C100.488 135.924 101.025 135.826 101.556 135.58C102.086 135.334 102.505 134.99 102.811 134.548C103.108 134.109 103.275 133.613 103.311 133.06C103.338 132.51 103.217 131.954 102.946 131.392C102.676 130.83 102.316 130.385 101.866 130.056C101.407 129.732 100.91 129.543 100.376 129.49C99.8333 129.441 99.2966 129.539 98.7661 129.785Z" fill="#303030"/>
<path d="M86.2879 136.74L92.6843 135.268C92.5271 134.694 92.2563 134.212 91.8721 133.82C91.4901 133.438 91.037 133.177 90.5127 133.038C89.9789 132.901 89.4176 132.9 88.8287 133.036C88.3444 133.147 87.9184 133.335 87.5508 133.6C87.176 133.876 86.8917 134.216 86.6979 134.621L86.1725 134.247C86.4025 133.784 86.7395 133.391 87.1835 133.069C87.618 132.749 88.1201 132.524 88.69 132.392C89.4308 132.222 90.1294 132.231 90.7858 132.42C91.4422 132.609 92.0046 132.95 92.473 133.442C92.9319 133.936 93.2486 134.548 93.4232 135.278C93.5955 135.999 93.5977 136.678 93.4297 137.317C93.2546 137.967 92.9349 138.516 92.4706 138.962C92.0064 139.409 91.4371 139.71 90.7628 139.865C90.0884 140.021 89.4468 139.998 88.8379 139.798C88.2218 139.61 87.6937 139.267 87.2538 138.768C86.8044 138.271 86.4935 137.663 86.3213 136.943L86.2879 136.74ZM90.6131 139.24C91.1355 139.12 91.5773 138.893 91.9385 138.56C92.302 138.236 92.5609 137.832 92.7153 137.346C92.8625 136.872 92.8916 136.365 92.8027 135.826L87.1043 137.137C87.2597 137.662 87.5155 138.103 87.8717 138.461C88.2279 138.819 88.6432 139.068 89.1178 139.209C89.5923 139.35 90.0908 139.36 90.6131 139.24Z" fill="#303030"/>
<path d="M75.7663 139.788L78.7479 139.732L78.6108 132.76L79.3415 132.746L79.4787 139.718L82.4603 139.661L82.4733 140.319L75.7793 140.446L75.7663 139.788Z" fill="#303030"/>
<path d="M68.5287 136.36C67.5935 136.222 66.9085 135.917 66.4738 135.444C66.0376 134.981 65.8745 134.364 65.9843 133.592C66.0982 132.791 66.4461 132.214 67.0279 131.861C67.6097 131.508 68.3972 131.404 69.3903 131.55L72.2394 131.969L71.1645 139.524L70.4403 139.425L70.8274 136.704L68.5287 136.36ZM69.3224 132.131C68.561 132.017 67.9597 132.092 67.5185 132.356C67.0774 132.62 66.8122 133.066 66.7229 133.693C66.6364 134.301 66.7657 134.776 67.1107 135.118C67.4544 135.47 68.0159 135.709 68.7953 135.836L70.9078 136.14L71.4329 132.449L69.3224 132.131Z" fill="#303030"/>
<path d="M51.415 131.867C50.7662 131.575 50.2497 131.161 49.8657 130.625C49.4816 130.089 49.2668 129.49 49.2211 128.829C49.1666 128.163 49.2982 127.49 49.616 126.811C49.9338 126.131 50.3697 125.59 50.9236 125.187C51.4645 124.789 52.0673 124.558 52.732 124.494C53.3926 124.438 54.0473 124.557 54.6961 124.848C55.3093 125.124 55.7988 125.516 56.1644 126.022C56.5259 126.537 56.7248 127.113 56.7609 127.749L58.6986 123.604L59.3652 123.904L54.9326 133.385L54.2927 133.098L55.0541 131.469C54.531 131.874 53.9525 132.111 53.3186 132.179C52.6716 132.251 52.0371 132.147 51.415 131.867ZM54.4575 125.462C53.9242 125.223 53.3865 125.13 52.8444 125.186C52.3022 125.241 51.8079 125.435 51.3616 125.769C50.9064 126.098 50.5467 126.545 50.2826 127.11C50.0184 127.675 49.9076 128.235 49.9501 128.788C49.9837 129.337 50.156 129.832 50.4671 130.271C50.7781 130.71 51.2003 131.049 51.7335 131.289C52.2668 131.529 52.8045 131.621 53.3467 131.566C53.88 131.507 54.3742 131.312 54.8294 130.983C55.2758 130.649 55.631 130.2 55.8951 129.635C56.1593 129.07 56.2746 128.513 56.2409 127.964C56.1984 127.41 56.0261 126.916 55.724 126.481C55.4129 126.042 54.9908 125.702 54.4575 125.462Z" fill="#303030"/>
<path d="M46.5144 118.943C47.0953 119.37 47.5206 119.889 47.7904 120.498C48.0523 121.102 48.1391 121.735 48.0508 122.396C47.9566 123.064 47.6846 123.693 47.2348 124.281C46.7849 124.87 46.249 125.298 45.6269 125.566C44.9989 125.842 44.3528 125.941 43.6884 125.864C43.0161 125.78 42.3895 125.525 41.8086 125.098C41.2277 124.67 40.8063 124.155 40.5444 123.551C40.2747 122.941 40.1869 122.302 40.2811 121.633C40.3693 120.972 40.6384 120.347 41.0882 119.759C41.5381 119.171 42.077 118.739 42.705 118.463C43.327 118.194 43.9742 118.102 44.6464 118.185C45.3108 118.263 45.9335 118.515 46.5144 118.943ZM46.1148 119.465C45.6438 119.119 45.141 118.918 44.6063 118.863C44.0638 118.803 43.5386 118.888 43.0306 119.12C42.5149 119.345 42.0676 119.705 41.6888 120.201C41.3099 120.696 41.0824 121.219 41.0063 121.767C40.9223 122.31 40.9858 122.829 41.1969 123.323C41.4001 123.811 41.7372 124.228 42.2082 124.575C42.6792 124.921 43.1859 125.125 43.7285 125.185C44.2632 125.24 44.7884 125.155 45.3041 124.929C45.8121 124.698 46.2554 124.335 46.6343 123.839C47.0131 123.344 47.2445 122.825 47.3285 122.282C47.4047 121.733 47.3411 121.214 47.1379 120.726C46.9269 120.232 46.5858 119.812 46.1148 119.465Z" fill="#303030"/>
<path d="M31.3357 113.899L37.1203 108.922L37.6075 109.467L32.3215 114.015L34.9717 116.979L36.5803 115.73C37.4171 115.087 38.1442 114.578 38.7614 114.201C39.3787 113.824 39.9477 113.598 40.4685 113.523C40.9894 113.447 41.4154 113.595 41.7467 113.965C41.8441 114.074 41.9579 114.253 42.0881 114.501L41.5628 114.856C41.4885 114.715 41.4253 114.615 41.3733 114.557C41.1005 114.251 40.7412 114.149 40.2954 114.25C39.8496 114.351 39.3754 114.566 38.8728 114.895C38.3702 115.225 37.7406 115.683 36.9841 116.27L34.9018 117.888L31.3357 113.899Z" fill="#303030"/>
<path d="M28.263 108.081L27.9023 107.445L33.6122 104.328L25.2192 102.715L24.9018 102.155L31.5997 98.4993L31.9603 99.1351L26.2505 102.252L34.6435 103.865L34.9608 104.425L28.263 108.081Z" fill="#303030"/>
<path d="M26.7714 93.0735L27.3274 94.8448L30.7139 93.8219L30.9328 94.5192L23.628 96.7257L23.4091 96.0284L26.7257 95.0266L26.1697 93.2552L21.9906 91.5094L21.7498 90.7423L26.2184 92.6297L28.9846 88.3127L29.2473 89.1495L26.7714 93.0735Z" fill="#303030"/>
<path d="M29.0916 76.7574C29.0973 77.4786 28.9367 78.1328 28.61 78.72C28.2832 79.2975 27.8287 79.7541 27.2466 80.0899C26.6548 80.4257 25.9885 80.5964 25.2479 80.602C24.5072 80.6077 23.8432 80.447 23.2559 80.1201C22.6589 79.7932 22.1924 79.3436 21.8565 78.7711C21.5206 78.1889 21.3498 77.5372 21.3441 76.8161C21.3384 76.095 21.499 75.4456 21.8258 74.8682C22.1525 74.2809 22.6118 73.8194 23.2037 73.4836C23.7858 73.1478 24.4472 72.9771 25.1878 72.9715C25.9284 72.9659 26.5973 73.1265 27.1944 73.4534C27.7817 73.7803 28.2433 74.2348 28.5793 74.817C28.9151 75.3895 29.0859 76.0363 29.0916 76.7574ZM28.4338 76.7624C28.4292 76.1777 28.2886 75.6574 28.0122 75.2014C27.7356 74.7357 27.3527 74.3731 26.8633 74.1137C26.3739 73.8445 25.8174 73.7123 25.1937 73.717C24.57 73.7217 24.0156 73.8624 23.5304 74.1389C23.0453 74.4057 22.6681 74.7741 22.3989 75.2439C22.1296 75.704 21.9973 76.2264 22.0019 76.8111C22.0065 77.3958 22.1471 77.921 22.4236 78.3868C22.7001 78.8427 23.083 79.2053 23.5725 79.4745C24.0618 79.7339 24.6183 79.8613 25.242 79.8565C25.8657 79.8518 26.4201 79.716 26.9053 79.4492C27.3905 79.1727 27.7676 78.8044 28.0369 78.3443C28.3061 77.8744 28.4384 77.3471 28.4338 76.7624Z" fill="#303030"/>
<path d="M26.8638 55.2462L34.1435 57.5341L33.9166 58.2289L27.2644 56.1383L25.6488 61.0852L32.3009 63.1758L32.074 63.8706L24.7943 61.5828L26.8638 55.2462Z" fill="#303030"/>
<path d="M32.1557 47.0732C32.5159 46.4597 32.9858 45.9865 33.5654 45.6537C34.145 45.3208 34.7708 45.1595 35.4427 45.1698C36.1196 45.1717 36.7847 45.3572 37.4381 45.7263C38.0914 46.0955 38.593 46.5691 38.9428 47.1473C39.2891 47.7122 39.4609 48.3241 39.4583 48.9829C39.4472 49.637 39.2615 50.2708 38.9013 50.8843C38.5609 51.4641 38.1167 51.9127 37.5689 52.2299C37.0126 52.5424 36.4118 52.6898 35.7668 52.6723L39.7505 54.923L39.3804 55.5533L30.2675 50.4048L30.6227 49.7997L32.1882 50.6842C31.8321 50.136 31.6522 49.5475 31.6485 48.9187C31.6412 48.2767 31.8103 47.6615 32.1557 47.0732ZM38.3064 50.5985C38.6024 50.0943 38.7501 49.5733 38.7493 49.0357C38.7486 48.4981 38.6027 47.996 38.3117 47.5294C38.0256 47.0544 37.611 46.6635 37.068 46.3567C36.5249 46.0499 35.9722 45.8943 35.4098 45.8899C34.8523 45.8771 34.3364 46.0053 33.862 46.2745C33.3875 46.5437 33.0023 46.9304 32.7062 47.4346C32.4102 47.9389 32.2625 48.4598 32.2633 48.9974C32.269 49.5267 32.4148 50.0288 32.7009 50.5038C32.992 50.9704 33.409 51.3571 33.952 51.6639C34.4951 51.9707 35.0453 52.1305 35.6028 52.1432C36.1652 52.1476 36.6812 52.0194 37.1507 51.7586C37.6251 51.4895 38.0103 51.1027 38.3064 50.5985Z" fill="#303030"/>
<path d="M45.6674 43.6395C45.1809 44.1718 44.616 44.5444 43.9727 44.7572C43.336 44.9628 42.6863 44.9949 42.0237 44.8533C41.3538 44.7053 40.7407 44.3867 40.1845 43.8976C39.6283 43.4085 39.2425 42.8485 39.0269 42.2178C38.8041 41.5806 38.7622 40.9404 38.9012 40.2971C39.0469 39.6467 39.363 39.0553 39.8495 38.523C40.336 37.9906 40.8977 37.6216 41.5344 37.416C42.1777 37.2032 42.8343 37.1708 43.5042 37.3188C44.1668 37.4604 44.7763 37.7757 45.3324 38.2649C45.8886 38.754 46.2781 39.3171 46.501 39.9543C46.7166 40.5851 46.7515 41.2257 46.6058 41.8761C46.4668 42.5194 46.154 43.1072 45.6674 43.6395ZM45.1735 43.2051C45.5679 42.7734 45.8172 42.2985 45.9213 41.7802C46.032 41.2547 45.9931 40.7339 45.8047 40.2179C45.6229 39.6946 45.2978 39.2271 44.8295 38.8152C44.3611 38.4033 43.8519 38.1372 43.3019 38.0168C42.7585 37.8892 42.2266 37.908 41.7061 38.0731C41.1922 38.231 40.738 38.5258 40.3435 38.9574C39.949 39.389 39.6964 39.8676 39.5858 40.3931C39.4817 40.9114 39.5205 41.4322 39.7023 41.9554C39.8907 42.4714 40.2191 42.9354 40.6875 43.3473C41.1558 43.7592 41.6617 44.0289 42.2052 44.1565C42.7552 44.2768 43.2871 44.2581 43.801 44.1002C44.3215 43.9351 44.779 43.6367 45.1735 43.2051Z" fill="#303030"/>
<path d="M55.1821 32.1963L49.8392 36.0088C50.2091 36.475 50.6485 36.8139 51.1572 37.0255C51.6601 37.2293 52.1813 37.2942 52.721 37.2204C53.2685 37.1409 53.7882 36.9256 54.2801 36.5747C54.6847 36.286 55.0053 35.9495 55.2419 35.5652C55.4807 35.1673 55.6106 34.7455 55.6317 34.2995L56.2641 34.4407C56.2324 34.9542 56.0741 35.4442 55.7893 35.9107C55.5124 36.3716 55.136 36.7719 54.66 37.1116C54.0413 37.5531 53.3912 37.8134 52.7099 37.8926C52.0287 37.9717 51.3751 37.8755 50.7491 37.604C50.1311 37.3267 49.5986 36.8867 49.1516 36.284C48.7105 35.689 48.4426 35.0662 48.3482 34.4153C48.2559 33.751 48.3372 33.1244 48.592 32.5356C48.8468 31.9468 49.2558 31.4515 49.8191 31.0495C50.3823 30.6476 50.9847 30.4213 51.6263 30.3704C52.2701 30.3061 52.893 30.4182 53.4952 30.7067C54.1053 30.9896 54.6309 31.4285 55.0721 32.0235L55.1821 32.1963ZM50.2022 31.5662C49.7659 31.8775 49.4457 32.2556 49.2418 32.7004C49.0321 33.1373 48.9507 33.6083 48.9978 34.1134C49.0469 34.6051 49.2182 35.0814 49.5115 35.5424L54.2713 32.146C53.9224 31.7246 53.5132 31.4181 53.0436 31.2265C52.574 31.0349 52.0921 30.9658 51.5979 31.0191C51.1037 31.0725 50.6385 31.2549 50.2022 31.5662Z" fill="#303030"/>
<path d="M62.535 29.6847L60.8336 30.4276L62.2954 33.6491L61.6256 33.9416L58.4724 26.9927L59.1422 26.7003L60.5738 29.8552L62.2752 29.1123L63.4828 24.8049L64.2196 24.4832L62.9078 29.0913L67.5872 31.3384L66.7834 31.6894L62.535 29.6847Z" fill="#303030"/>
<path d="M73.9611 23.3461L71.0575 24.0258L72.7056 30.8012L71.9939 30.9677L70.3458 24.1924L67.4421 24.8721L67.2867 24.2329L73.8056 22.7069L73.9611 23.3461Z" fill="#303030"/>
<path d="M85.1743 25.1781L78.6276 25.6497C78.6914 26.2411 78.8818 26.7599 79.1986 27.2061C79.5146 27.6425 79.9203 27.9699 80.4155 28.1883C80.9204 28.406 81.4742 28.4931 82.0769 28.4497C82.5726 28.414 83.0229 28.2936 83.4278 28.0886C83.8417 27.8731 84.1765 27.5803 84.4322 27.2102L84.891 27.6608C84.5904 28.083 84.1953 28.4192 83.7059 28.6695C83.2261 28.919 82.6946 29.0647 82.1114 29.1067C81.3532 29.1613 80.6653 29.0448 80.0476 28.7571C79.4299 28.4694 78.9292 28.0462 78.5453 27.4876C78.1712 26.9283 77.9561 26.2745 77.9001 25.5262C77.8448 24.7876 77.9509 24.1155 78.2183 23.51C78.4947 22.8941 78.8975 22.401 79.4269 22.0306C79.9562 21.6603 80.5659 21.4503 81.2561 21.4006C81.9462 21.3509 82.5758 21.4716 83.1449 21.7628C83.723 22.0436 84.1894 22.4644 84.5441 23.0251C84.9085 23.5851 85.1183 24.2344 85.1736 24.973L85.1743 25.1781ZM81.3041 22.042C80.7695 22.0805 80.2974 22.2366 79.8879 22.5104C79.4777 22.7744 79.1577 23.1346 78.928 23.5908C78.7072 24.0366 78.5978 24.533 78.5997 25.0801L84.4319 24.66C84.362 24.1179 84.1798 23.6425 83.8854 23.2338C83.5909 22.825 83.2207 22.5146 82.7748 22.3025C82.329 22.0903 81.8387 22.0035 81.3041 22.042Z" fill="#303030"/>
<path d="M97.9937 32.7723C97.2928 32.6027 96.6985 32.2885 96.211 31.8296C95.7329 31.373 95.4042 30.8222 95.2247 30.1772C95.0477 29.5227 95.0494 28.8364 95.2301 28.1181C95.4107 27.3998 95.7333 26.796 96.198 26.3069C96.665 25.8083 97.2184 25.4659 97.8581 25.2798C98.5072 25.096 99.1822 25.0889 99.8832 25.2585C100.584 25.4281 101.174 25.7412 101.652 26.1978C102.139 26.6567 102.471 27.2133 102.649 27.8678C102.828 28.5128 102.827 29.1945 102.647 29.9128C102.466 30.6311 102.142 31.2395 101.675 31.7381C101.211 32.2273 100.654 32.5637 100.005 32.7476C99.3649 32.9337 98.6946 32.9419 97.9937 32.7723ZM98.1541 32.1343C98.7225 32.2719 99.2625 32.2622 99.7742 32.1053C100.295 31.9507 100.743 31.668 101.118 31.2573C101.502 30.8489 101.77 30.3423 101.922 29.7374C102.074 29.1325 102.077 28.5617 101.931 28.025C101.794 27.4905 101.531 27.036 101.143 26.6613C100.765 26.2889 100.291 26.034 99.7228 25.8965C99.1544 25.759 98.6096 25.7675 98.0884 25.9221C97.5767 26.079 97.1288 26.3617 96.7447 26.7701C96.3702 27.1807 96.1068 27.6885 95.9547 28.2934C95.8026 28.8983 95.795 29.468 95.9319 30.0024C96.0783 30.5392 96.3408 30.9937 96.7195 31.3661C97.1076 31.7407 97.5858 31.9968 98.1541 32.1343Z" fill="#303030"/>
<path d="M110.317 26.2485L110.976 26.5654L106.125 36.2672L105.467 35.9503L110.317 26.2485Z" fill="#303030"/>
<path d="M115.848 29.3997L116.471 29.7822L110.636 38.9258L110.013 38.5433L115.848 29.3997Z" fill="#303030"/>
<path d="M124.142 39.54L115.623 43.9193C114.971 44.2661 114.402 44.4309 113.917 44.4138C113.439 44.4027 112.992 44.2366 112.575 43.9156C112.297 43.7015 112.071 43.4538 111.897 43.1722C111.73 42.8966 111.632 42.6059 111.602 42.3001L112.239 42.0892C112.298 42.639 112.548 43.0834 112.988 43.4222C113.282 43.6481 113.597 43.7614 113.933 43.7621C114.269 43.7628 114.682 43.6375 115.17 43.3861L116.069 42.9166L118.096 34.8853L118.71 35.3579L116.866 42.5524L123.552 39.0852L124.142 39.54Z" fill="#303030"/>
<path d="M124.391 50.9944C124.135 50.9707 123.876 50.8853 123.613 50.7382C123.365 50.592 123.14 50.4063 122.939 50.181C122.497 49.687 122.293 49.188 122.326 48.684C122.366 48.1737 122.634 47.7056 123.129 47.2797L126.908 44.0287L125.972 42.9825L126.449 42.5726L127.384 43.6187L128.647 42.5319L129.135 43.0768L127.871 44.1636L129.489 45.9727L129.012 46.3826L127.395 44.5736L123.671 47.777C123.295 48.1011 123.084 48.4362 123.041 48.7821C123.011 49.129 123.152 49.4768 123.464 49.8256C123.782 50.1816 124.152 50.3837 124.575 50.4318L124.391 50.9944Z" fill="#303030"/>
<path d="M132.101 56.9818L128.388 51.5693C127.903 51.9129 127.545 52.33 127.314 52.8208C127.092 53.3062 127.01 53.8156 127.069 54.349C127.133 54.8904 127.336 55.4102 127.678 55.9085C127.959 56.3183 128.291 56.6477 128.675 56.8966C129.072 57.1482 129.497 57.2939 129.949 57.3337L129.787 57.949C129.266 57.8959 128.772 57.7195 128.307 57.4197C127.847 57.128 127.451 56.741 127.121 56.2588C126.691 55.632 126.446 54.9822 126.386 54.3094C126.326 53.6366 126.444 52.9986 126.739 52.3951C127.039 51.7998 127.503 51.2954 128.129 50.882C128.747 50.4739 129.389 50.2374 130.053 50.1725C130.731 50.1102 131.365 50.2168 131.956 50.4923C132.547 50.7679 133.038 51.1909 133.429 51.7615C133.821 52.3321 134.033 52.9337 134.065 53.5663C134.111 54.2015 133.978 54.8088 133.666 55.3881C133.36 55.9754 132.898 56.4731 132.28 56.8811L132.101 56.9818ZM132.893 52.1159C132.589 51.6739 132.215 51.3432 131.769 51.1238C131.331 50.899 130.855 50.799 130.34 50.8236C129.839 50.8509 129.349 50.9988 128.872 51.2673L132.18 56.0891C132.619 55.7644 132.943 55.3754 133.152 54.9222C133.361 54.4689 133.446 53.9984 133.406 53.5106C133.367 53.0228 133.196 52.5579 132.893 52.1159Z" fill="#303030"/>
<path d="M137.987 61.409C138.368 62.2742 138.436 63.0337 138.191 63.6876C137.956 64.3377 137.407 64.8451 136.546 65.21L132.09 67.0972L131.808 66.455L133.06 65.9248C132.549 65.8766 132.082 65.6879 131.661 65.3586C131.248 65.0255 130.91 64.5601 130.647 63.9625C130.305 63.1865 130.218 62.4931 130.386 61.8823C130.557 61.2805 130.944 60.8523 131.545 60.5976C132.128 60.3505 132.69 60.3561 133.229 60.6144C133.782 60.8778 134.258 61.4644 134.659 62.3742L135.713 64.7691L136.278 64.5297C136.933 64.2522 137.353 63.8628 137.537 63.3616C137.725 62.8693 137.67 62.2842 137.371 61.6063C137.167 61.1425 136.89 60.7307 136.54 60.371C136.194 60.0202 135.821 59.7546 135.423 59.5743L135.76 59.0346C136.227 59.2494 136.654 59.566 137.04 59.9843C137.436 60.3989 137.751 60.8738 137.987 61.409ZM131.24 63.8224C131.495 64.4022 131.846 64.8357 132.291 65.1231C132.741 65.4194 133.267 65.5617 133.869 65.5502L135.188 64.9915L134.14 62.6099C133.837 61.9231 133.492 61.4768 133.103 61.2711C132.718 61.0742 132.306 61.0689 131.867 61.2552C131.409 61.449 131.12 61.7724 131 62.2254C130.889 62.6746 130.969 63.2069 131.24 63.8224Z" fill="#303030"/>
<path d="M142.297 78.922C142.506 79.8439 142.399 80.6255 141.975 81.2667C141.553 81.9174 140.832 82.354 139.814 82.5764L135.458 83.5275L135.296 82.8147L139.595 81.8761C140.433 81.6931 141.024 81.3495 141.369 80.8452C141.715 80.3409 141.804 79.7229 141.638 78.9911C141.448 78.1547 141.036 77.5466 140.4 77.1667C139.766 76.7964 139.007 76.7079 138.121 76.9012L134.151 77.7681L133.989 77.0553L138.288 76.1167C139.126 75.9337 139.717 75.5901 140.063 75.0858C140.408 74.5815 140.497 73.9635 140.331 73.2317C140.142 72.3953 139.729 71.7872 139.093 71.4073C138.459 71.037 137.7 70.9484 136.814 71.1418L132.844 72.0087L132.682 71.2959L140.137 69.6681L140.293 70.3524L138.693 70.7017C139.273 70.8344 139.76 71.112 140.156 71.5343C140.563 71.9641 140.844 72.5163 140.997 73.1911C141.15 73.8659 141.127 74.4694 140.928 75.0016C140.731 75.5434 140.36 75.9785 139.815 76.3069C140.423 76.4335 140.949 76.7227 141.391 77.1748C141.835 77.6363 142.137 78.2187 142.297 78.922Z" fill="#303030"/>
<defs>
<linearGradient id="paint0_linear_910_972" x1="110.195" y1="75.8395" x2="54.2661" y2="81.3775" gradientUnits="userSpaceOnUse">
<stop stop-color="#53C4D0"/>
<stop offset="1" stop-color="#008A99"/>
</linearGradient>
</defs>
</svg>
