<svg width="157" height="128" viewBox="0 0 157 128" fill="none" xmlns="http://www.w3.org/2000/svg">
<path d="M71.9815 121.856L82.1229 116.334L81.8338 127.878L71.9815 121.856ZM0.503038 -0.000651794C2.20604 -0.000648171 3.89244 0.00558743 5.56235 0.0179696L5.54753 2.01791C3.88262 2.00557 2.20116 1.99935 0.503033 1.99935L0.503038 -0.000651794ZM15.3851 0.165252C18.6796 0.240399 21.9056 0.340697 25.0643 0.465386L24.9854 2.46383C21.8381 2.33959 18.6231 2.23963 15.3395 2.16473L15.3851 0.165252ZM34.9408 0.946553C38.2383 1.13878 41.4567 1.35919 44.5974 1.60677L44.4402 3.60059C41.3136 3.3541 38.1088 3.13462 34.8245 2.94316L34.9408 0.946553ZM54.4323 2.49556C57.758 2.83612 60.9885 3.20931 64.1258 3.61373L63.8701 5.59731C60.7507 5.1952 57.5376 4.824 54.2286 4.48515L54.4323 2.49556ZM73.7783 5.00149C77.1419 5.53768 80.3864 6.1128 83.5148 6.7248L83.1308 8.68759C80.0264 8.08029 76.8049 7.50922 73.4635 6.97655L73.7783 5.00149ZM93.0131 8.77808C96.3092 9.56286 99.4581 10.393 102.464 11.2653L101.907 13.1861C98.9335 12.3232 95.8161 11.5014 92.5498 10.7237L93.0131 8.77808ZM111.888 14.3C115.138 15.4594 118.187 16.6756 121.043 17.9434L120.231 19.7714C117.424 18.5253 114.422 17.3275 111.216 16.1837L111.888 14.3ZM129.851 22.3496C132.892 24.0671 135.647 25.8568 138.127 27.7086L136.931 29.3112C134.524 27.5143 131.841 25.7704 128.868 24.0911L129.851 22.3496ZM145.517 34.2211C147.968 36.8041 149.978 39.4739 151.577 42.2074L149.85 43.2171C148.334 40.6251 146.419 38.0772 144.066 35.5976L145.517 34.2211ZM155.394 51.4197C156.238 54.7217 156.566 58.0611 156.432 61.3968L154.433 61.3163C154.56 58.1668 154.251 55.0219 153.456 51.9153L155.394 51.4197ZM154.732 71.2364C153.79 74.352 152.484 77.4265 150.86 80.4276L149.101 79.4759C150.667 76.5819 151.919 73.632 152.818 70.6577L154.732 71.2364ZM145.447 88.7152C143.474 91.282 141.276 93.7671 138.887 96.1472L137.475 94.7303C139.806 92.4083 141.945 89.9889 143.862 87.4962L145.447 88.7152ZM131.501 102.697C128.949 104.718 126.256 106.629 123.449 108.409L122.377 106.72C125.127 104.976 127.763 103.106 130.26 101.129L131.501 102.697ZM114.854 113.273C111.919 114.745 108.9 116.075 105.821 117.245L105.11 115.376C108.125 114.23 111.082 112.927 113.958 111.485L114.854 113.273ZM96.4189 120.264C93.219 121.103 89.9835 121.762 86.7382 122.22L86.4584 120.24C89.6235 119.793 92.783 119.15 95.9113 118.329L96.4189 120.264Z" fill="#C3C3C3"/>
</svg>
