<svg width="535" height="355" viewBox="0 0 535 355" fill="none" xmlns="http://www.w3.org/2000/svg">
<path d="M361.338 72.5672C354.931 72.2113 348.211 80.7521 344.784 81.4969C340.513 82.4155 340.645 82.8459 338.394 81.4969C334.214 76.0596 333.171 70.4238 335.481 56.1809C335.481 56.123 335.481 56.0651 335.481 56.0071C337.339 46.9907 339.758 38.0989 342.723 29.3835C342.967 28.181 342.805 26.9316 342.263 25.8308C341.721 24.7301 340.829 23.8403 339.727 23.3007C333.146 20.7187 325.54 18.5669 317.627 16.8786C312.827 16.0511 304.583 15 300.933 15C293.806 15 290.611 17.4828 289.858 20.3131C288.55 25.1959 300.204 31.9739 299.625 38.8181C298.797 48.534 273.296 53.7892 257.636 53.7892H257.561C241.893 53.7892 227.168 48.534 226.341 38.8181C225.753 31.9739 237.407 25.1959 236.099 20.3131C235.346 17.5159 232.159 15 225.025 15C221.383 15 210.755 16.0428 205.963 16.8786C198.042 18.5338 193.34 20.7187 186.752 23.3007C185.651 23.8414 184.76 24.7314 184.217 25.8318C183.675 26.9322 183.513 28.1811 183.756 29.3835C186.725 38.0978 189.144 46.9898 190.998 56.0071C191.002 56.065 191.002 56.1231 190.998 56.1809C193.316 70.4238 195.178 70.9617 190.998 76.4155C188.821 79.2624 186.487 81.2238 182.216 80.3052C178.789 79.5604 172.549 70.9782 166.151 71.3341C160.415 71.6403 154 89.5328 154 100.846C154 112.159 160.415 128.835 166.151 129.15C172.549 129.497 178.789 120.915 182.216 120.17C186.487 119.252 188.838 121.213 190.998 124.06C195.178 129.497 193.316 131.268 190.998 145.519C191.001 145.574 191.001 145.63 190.998 145.685C189.144 154.702 186.725 163.594 183.756 172.308C183.512 173.511 183.213 177.29 183.756 178.391C184.298 179.492 185.19 180.382 186.292 180.921C192.914 183.503 197.582 185.663 205.503 187.343C210.295 188.171 224.316 190 227.958 190C234.24 190 237.887 184.987 238.64 182.157C239.948 177.274 229.146 170.504 229.734 163.652C230.562 153.936 242.191 151.337 257.859 151.337H257.934C273.594 151.337 294.957 153.936 295.784 163.652C296.364 170.504 286.142 177.274 287.449 182.157C288.203 184.954 292.738 188.364 298.433 188.364C302.083 188.364 314.325 188.179 319.125 187.343C327.038 185.688 334.645 183.503 341.225 180.921C342.328 180.383 343.414 178.706 343.956 177.605C344.499 176.504 342.968 173.511 342.723 172.308C339.768 163.584 337.36 154.684 335.514 145.66C335.514 145.602 335.514 145.544 335.514 145.494C333.204 131.243 334.247 125.632 338.427 120.17C340.645 119.26 340.513 119.252 344.784 120.17C348.211 120.915 354.931 129.539 361.338 129.191C367.074 128.876 373 112.184 373 100.863C373 89.5411 367.074 72.8734 361.338 72.5672Z" fill="url(#paint0_linear_910_646)"/>
<path d="M525.76 229.106C519.368 228.751 513.15 237.303 509.732 238.046C505.471 238.961 503.126 237.007 500.962 234.17C496.792 228.751 495.752 223.135 498.056 208.941C498.056 208.884 498.056 208.826 498.056 208.768C499.91 199.783 502.323 190.922 505.281 182.237C505.524 181.038 508.291 176.406 507.75 175.309C507.209 174.212 505.134 173.785 504.034 173.247C497.469 170.674 492.11 169.307 484.216 167.624C479.427 166.799 470.104 165 466.462 165C459.352 165 452.763 170.014 452.011 172.835C450.707 177.701 461.673 184.158 461.095 190.979C460.269 200.661 438.551 202.937 422.928 202.937H422.854C407.222 202.937 395.62 202.147 394.795 192.465C394.208 185.644 405.835 178.89 404.53 174.024C403.779 171.236 396.785 165 389.667 165C386.033 165 374.028 166.791 369.247 167.624C361.345 169.274 356.655 171.451 350.082 174.024C348.983 174.563 348.094 175.45 347.553 176.546C347.012 177.643 346.85 178.887 347.092 180.086C350.054 188.77 354.134 199.782 355.984 208.768C355.988 208.826 355.988 208.884 355.984 208.941C358.296 223.135 357.247 226.483 353.077 231.918C350.905 234.755 349.337 233.543 345.076 232.627C341.657 231.885 337.578 224.025 331.195 224.38C321.542 224.38 317 242.384 317 253.658C317 264.932 322.367 283.76 331.195 283.76C337.578 284.106 345.373 273.476 348.792 272.734C352.508 273.451 352.83 275.562 354.985 278.399C357.049 284.585 357.297 283.991 354.985 298.193C354.988 298.248 354.988 298.303 354.985 298.358C353.135 307.344 350.721 316.205 347.759 324.889C347.516 326.087 347.677 327.332 348.218 328.429C348.759 329.526 349.649 330.413 350.749 330.951C357.355 333.524 365.918 335.454 373.82 337.128C378.601 337.953 386.834 339 390.467 339C397.586 339 400.765 336.526 401.516 333.705C402.821 328.839 391.194 322.093 391.78 315.264C392.606 305.582 407.296 300.345 422.928 300.345H423.002C438.626 300.345 464.348 305.582 465.174 315.264C465.752 322.093 454.125 328.839 455.43 333.705C456.181 336.493 459.369 339 466.479 339C470.12 339 478.345 337.961 483.134 337.128C491.028 335.478 495.727 333.301 502.292 330.728C503.392 330.191 504.283 329.305 504.824 328.208C505.365 327.11 505.526 325.865 505.281 324.666C502.333 315.972 499.931 307.103 498.089 298.11C498.089 298.053 498.089 297.995 498.089 297.945C495.785 283.744 496.825 278.152 500.995 272.709C503.175 269.872 505.504 267.917 509.765 268.833C513.183 269.575 519.401 278.127 525.793 277.781C531.515 277.467 535 264.709 535 253.427C535 242.145 531.482 229.411 525.76 229.106Z" fill="url(#paint1_linear_910_646)"/>
<path d="M193.338 223.963C186.938 223.608 183.104 231.819 179.676 232.562C175.404 233.478 173.466 233.998 171.297 231.159C167.157 225.737 166.602 220.942 168.912 206.74C168.916 206.683 168.916 206.625 168.912 206.567C170.771 197.576 175.054 187.612 178.02 178.922C178.264 177.723 178.102 176.477 177.56 175.379C177.018 174.281 176.125 173.394 175.023 172.856C168.44 170.281 159.034 167.814 151.11 166.131C146.308 165.305 137.489 165 133.838 165C126.709 165 122.883 171.148 122.13 173.97C120.822 178.839 131.404 184.063 130.824 190.888C129.996 200.576 116.963 203.679 101.298 203.679H101.223C85.549 203.679 72.45 200.163 71.622 190.475C71.0341 183.65 82.0465 178.427 80.73 173.558C79.9765 170.768 75.8117 165 68.6743 165C65.0311 165 56.776 166.04 51.9819 166.873C44.0579 168.524 39.3548 170.702 32.764 173.277C31.6629 173.816 30.7723 174.704 30.2315 175.802C29.6907 176.899 29.5301 178.144 29.7749 179.343C32.7384 188.033 35.1553 196.9 37.0116 205.89C37.0155 205.948 37.0155 206.006 37.0116 206.064C39.33 220.266 38.2784 228.667 34.1053 234.105C31.9194 236.944 29.5844 238.899 25.312 237.983C21.884 237.241 15.6409 228.683 9.24051 229.038C3.50247 229.343 0 242.118 0 253.399C0 264.68 3.50247 277.454 9.24051 277.768C15.6409 278.114 21.884 269.557 25.312 268.814C29.5844 267.898 31.936 269.854 34.1053 272.693C38.2453 278.114 39.33 283.734 37.0116 297.945C37.0147 298 37.0147 298.055 37.0116 298.11C35.1553 307.1 32.7384 315.967 29.7749 324.657C29.5286 325.856 29.6885 327.101 30.2295 328.199C30.7705 329.297 31.662 330.185 32.764 330.723C39.388 333.298 44.0579 335.451 51.9819 337.127C56.776 337.952 65.0311 339 68.6743 339C75.8117 339 78.9995 336.524 79.753 333.702C81.0695 328.833 69.403 322.083 69.9909 315.25C70.8189 305.562 85.549 300.321 101.223 300.321H101.298C116.963 300.321 131.702 305.562 132.53 315.25C133.109 322.083 121.451 328.833 122.759 333.702C123.513 336.491 126.709 339 133.838 339C137.489 339 145.736 337.96 150.539 337.127C158.463 335.476 166.414 332.56 172.997 329.985C174.1 329.448 174.993 328.561 175.536 327.463C176.079 326.366 176.24 325.119 175.994 323.92C173.027 315.221 170.607 306.346 168.749 297.347C168.754 297.293 168.754 297.237 168.749 297.182C166.439 282.972 165.81 281.998 169.991 276.552C172.177 273.713 172.997 273.411 175.536 273.411C178.964 274.153 186.938 283.248 193.338 282.901C204.93 281.25 207 263.657 207 252.367C207 241.078 202.446 223.963 193.338 223.963Z" fill="url(#paint2_linear_910_646)"/>
<path d="M397.479 9.21711C397.131 15.6014 405.723 21.8287 406.461 25.2397C407.389 29.5096 405.425 31.8469 402.575 34.0108C397.131 38.1816 391.488 39.2305 377.221 36.918H377.055C368.027 35.0675 359.125 32.6538 350.4 29.6913C349.196 29.4478 347.946 29.6092 346.843 30.1502C345.741 30.6912 344.851 31.5813 344.31 32.6811C341.717 39.247 339.563 43.9464 337.881 51.8504C337.052 56.6324 336 64.8666 336 68.5006C336 75.6199 338.486 78.7997 341.319 79.5512C346.208 80.8562 352.985 69.2274 359.846 69.8138C369.573 70.6397 374.826 85.3326 374.826 100.967V101.041C374.826 116.667 369.573 131.369 359.846 132.194C352.985 132.773 346.208 121.144 341.319 122.449C338.519 123.2 336 126.388 336 133.499C336 137.133 337.044 145.368 337.881 150.158C339.538 158.054 341.717 162.753 344.31 169.319C344.851 170.419 345.741 171.309 346.843 171.85C347.946 172.391 349.196 172.552 350.4 172.309C359.126 169.35 368.028 166.936 377.055 165.082H377.221C391.488 162.77 397.106 163.818 402.575 167.989C405.425 170.17 407.389 172.499 406.461 176.76C405.723 180.18 397.131 186.399 397.479 192.783C397.794 198.515 410.612 202 421.946 202C433.281 202 459.198 198.515 459.513 192.783C459.869 186.399 451.227 180.18 450.531 176.76C449.612 172.499 451.575 170.153 454.417 167.989C459.869 163.818 465.512 162.77 479.771 165.082H479.945C488.971 166.939 497.873 169.352 506.6 172.309C507.803 172.551 509.054 172.389 510.156 171.848C511.257 171.307 512.148 170.418 512.69 169.319C515.275 162.753 517.429 158.054 519.119 150.158C519.948 145.368 521 137.133 521 133.499C521 126.388 518.514 123.2 515.672 122.449C510.792 121.144 504.006 132.773 497.154 132.194C487.427 131.369 482.166 116.667 482.166 101.041V100.967C482.166 85.3326 487.427 70.6397 497.154 69.8138C504.006 69.2274 510.792 80.8562 515.672 79.5512C518.481 78.7997 521 75.6199 521 68.5006C521 64.8666 519.956 56.6324 519.119 51.8504C517.462 43.9464 515.275 39.247 512.69 32.6811C512.148 31.5823 511.257 30.693 510.156 30.1521C509.054 29.6113 507.803 29.4492 506.6 29.6913C497.875 32.6518 488.972 35.0654 479.945 36.918H479.771C465.512 39.2305 459.886 38.1816 454.417 34.0108C451.575 31.8387 449.612 29.5096 450.531 25.2397C451.269 21.8287 459.869 15.6014 459.513 9.21711C459.198 3.48532 433.273 0 421.946 0C410.62 0 397.794 3.48532 397.479 9.21711Z" fill="url(#paint3_linear_910_646)"/>
<path d="M231.227 162.217C230.872 168.601 239.428 174.829 240.17 178.24C241.086 182.51 239.131 184.847 236.301 187.011C230.872 191.182 225.253 192.231 211.054 189.918H210.881C201.892 188.065 193.027 185.652 184.339 182.691C183.141 182.449 181.896 182.611 180.799 183.152C179.701 183.693 178.814 184.582 178.275 185.681C175.701 192.247 173.556 196.946 171.873 204.85C171.048 209.632 170 217.867 170 221.501C170 228.62 172.475 231.8 175.305 232.551C180.165 233.856 186.922 222.227 193.745 222.814C203.431 223.64 208.67 238.333 208.67 253.967V254.041C208.67 269.667 203.431 284.369 193.745 285.194C186.922 285.773 180.165 274.144 175.305 275.449C172.508 276.2 170 279.388 170 286.499C170 290.133 171.04 298.368 171.873 303.158C173.523 311.054 175.701 315.753 178.275 322.319C178.814 323.418 179.701 324.307 180.799 324.848C181.896 325.389 183.141 325.551 184.339 325.309C193.029 322.352 201.893 319.939 210.881 318.082H211.054C225.253 315.77 230.855 316.818 236.301 320.989C239.131 323.17 241.086 325.499 240.17 329.76C239.428 333.18 230.872 339.399 231.227 345.783C231.532 351.515 244.304 355 255.582 355C266.86 355 293.468 351.515 293.782 345.783C294.128 339.399 285.531 333.18 284.83 329.76C283.914 325.499 285.869 323.153 288.708 320.989C294.128 316.818 299.747 315.77 313.954 318.082H314.119C323.108 319.936 331.972 322.35 340.661 325.309C341.859 325.552 343.105 325.391 344.202 324.85C345.3 324.309 346.187 323.419 346.725 322.319C349.307 315.753 351.452 311.054 353.127 303.158C353.952 298.368 355 290.133 355 286.499C355 279.388 352.525 276.2 349.703 275.449C344.835 274.144 338.087 285.773 331.255 285.194C321.569 284.369 316.33 269.667 316.33 254.041V253.967C316.33 238.333 321.569 223.64 331.255 222.814C338.087 222.227 344.835 233.856 349.703 232.551C352.492 231.8 355 228.62 355 221.501C355 217.867 353.96 209.632 353.127 204.85C351.477 196.946 349.307 192.247 346.725 185.681C346.187 184.581 345.3 183.691 344.202 183.15C343.105 182.609 341.859 182.448 340.661 182.691C331.973 185.654 323.109 188.067 314.119 189.918H313.954C299.747 192.231 294.153 191.182 288.708 187.011C285.869 184.839 283.914 182.51 284.83 178.24C285.572 174.829 294.128 168.601 293.782 162.217C293.468 156.485 266.869 153 255.582 153C244.295 153 231.499 156.485 231.227 162.217Z" fill="url(#paint4_linear_910_646)"/>
<path d="M72.2627 9.21711C71.9077 15.6014 80.4685 21.8287 81.2114 25.2397C82.1278 29.5096 80.1713 31.8469 77.3397 34.0108C71.9077 38.1816 66.2858 39.2305 52.0784 36.918H51.9051C42.9107 35.0654 34.0409 32.6518 25.3477 29.6913C24.1483 29.4492 22.9025 29.6113 21.8049 30.1521C20.7072 30.693 19.8194 31.5823 19.2801 32.6811C16.7044 39.247 14.5581 43.9464 12.874 51.8504C12.0484 56.6324 11 64.8666 11 68.5006C11 75.6199 13.4766 78.7997 16.3082 79.5512C21.1705 80.8562 27.9317 69.2274 34.7588 69.8138C44.4505 70.6397 49.6926 85.3326 49.6926 100.967V101.041C49.6926 116.667 44.4505 131.369 34.7588 132.194C27.9317 132.773 21.1705 121.144 16.3082 122.449C13.5096 123.2 11 126.388 11 133.499C11 137.133 12.0402 145.368 12.874 150.158C14.525 158.054 16.7044 162.753 19.2801 169.319C19.8194 170.418 20.7072 171.307 21.8049 171.848C22.9025 172.389 24.1483 172.551 25.3477 172.309C34.0421 169.352 42.9116 166.939 51.9051 165.082H52.0784C66.2858 162.77 71.8912 163.818 77.3397 167.989C80.1713 170.17 82.1278 172.499 81.2114 176.76C80.4685 180.18 71.9077 186.399 72.2627 192.783C72.5681 198.515 85.3474 202 104.368 202C115.653 202 128.432 198.515 128.746 192.783C129.092 186.399 120.49 180.18 119.789 176.76C118.872 172.499 120.829 170.153 123.669 167.989C129.092 163.818 134.714 162.77 148.93 165.082H149.095C158.089 166.936 166.959 169.35 175.652 172.309C176.852 172.552 178.098 172.391 179.196 171.85C180.294 171.309 181.182 170.419 181.72 169.319C184.304 162.753 186.45 158.054 188.126 150.158C188.952 145.368 190 137.133 190 133.499C190 126.388 187.523 123.2 184.7 122.449C179.829 121.144 173.077 132.773 166.241 132.194C156.549 131.369 151.307 116.667 151.307 101.041V100.967C151.307 85.3326 156.549 70.6397 166.241 69.8138C173.077 69.2274 179.829 80.8562 184.7 79.5512C187.49 78.7997 190 75.6199 190 68.5006C190 64.8666 188.96 56.6324 188.126 51.8504C186.475 43.9464 184.304 39.247 181.72 32.6811C181.182 31.5813 180.294 30.6912 179.196 30.1502C178.098 29.6092 176.852 29.4478 175.652 29.6913C166.96 32.6538 158.09 35.0675 149.095 36.918H148.93C134.714 39.2305 129.117 38.1816 123.669 34.0108C120.829 31.8387 118.872 29.5096 119.789 25.2397C120.532 21.8287 129.092 15.6014 128.746 9.21711C128.432 3.48532 115.661 0 104.368 0C93.0744 0 72.5351 3.48532 72.2627 9.21711Z" fill="url(#paint5_linear_910_646)"/>
<path d="M72.2627 9.21711C71.9077 15.6014 80.4685 21.8287 81.2114 25.2397C82.1278 29.5096 80.1713 31.8469 77.3397 34.0108C71.9077 38.1816 66.2858 39.2305 52.0784 36.918H51.9051C42.9107 35.0654 34.0409 32.6518 25.3477 29.6913C24.1483 29.4492 22.9025 29.6113 21.8049 30.1521C20.7072 30.693 19.8194 31.5823 19.2801 32.6811C16.7044 39.247 14.5581 43.9464 12.874 51.8504C12.0484 56.6324 11 64.8666 11 68.5006C11 75.6199 13.4766 78.7997 16.3082 79.5512C21.1705 80.8562 27.9317 69.2274 34.7588 69.8138C44.4505 70.6397 49.6926 85.3326 49.6926 100.967V101.041C49.6926 116.667 44.4505 131.369 34.7588 132.194C27.9317 132.773 21.1705 121.144 16.3082 122.449C13.5096 123.2 11 126.388 11 133.499C11 137.133 12.0402 145.368 12.874 150.158C14.525 158.054 16.7044 162.753 19.2801 169.319C19.8194 170.418 20.7072 171.307 21.8049 171.848C22.9025 172.389 24.1483 172.551 25.3477 172.309C34.0421 169.352 42.9116 166.939 51.9051 165.082H52.0784C66.2858 162.77 71.8912 163.818 77.3397 167.989C80.1713 170.17 82.1278 172.499 81.2114 176.76C80.4685 180.18 71.9077 186.399 72.2627 192.783C72.5681 198.515 85.3474 202 104.368 202C115.653 202 128.432 198.515 128.746 192.783C129.092 186.399 120.49 180.18 119.789 176.76C118.872 172.499 120.829 170.153 123.669 167.989C129.092 163.818 134.714 162.77 148.93 165.082H149.095C158.089 166.936 166.959 169.35 175.652 172.309C176.852 172.552 178.098 172.391 179.196 171.85C180.294 171.309 181.182 170.419 181.72 169.319C184.304 162.753 186.45 158.054 188.126 150.158C188.952 145.368 190 137.133 190 133.499C190 126.388 187.523 123.2 184.7 122.449C179.829 121.144 173.077 132.773 166.241 132.194C156.549 131.369 151.307 116.667 151.307 101.041V100.967C151.307 85.3326 156.549 70.6397 166.241 69.8138C173.077 69.2274 179.829 80.8562 184.7 79.5512C187.49 78.7997 190 75.6199 190 68.5006C190 64.8666 188.96 56.6324 188.126 51.8504C186.475 43.9464 184.304 39.247 181.72 32.6811C181.182 31.5813 180.294 30.6912 179.196 30.1502C178.098 29.6092 176.852 29.4478 175.652 29.6913C166.96 32.6538 158.09 35.0675 149.095 36.918H148.93C134.714 39.2305 129.117 38.1816 123.669 34.0108C120.829 31.8387 118.872 29.5096 119.789 25.2397C120.532 21.8287 129.092 15.6014 128.746 9.21711C128.432 3.48532 115.661 0 104.368 0C93.0744 0 72.5351 3.48532 72.2627 9.21711Z" fill="url(#paint6_linear_910_646)"/>
<path d="M224.804 72.3348H220.164V84.1348H217.584V72.3348H212.964V70.1348H224.804V72.3348ZM235.673 78.8548C235.673 79.0281 235.66 79.2748 235.633 79.5948H227.253C227.4 80.3814 227.78 81.0081 228.393 81.4748C229.02 81.9281 229.793 82.1548 230.713 82.1548C231.886 82.1548 232.853 81.7681 233.613 80.9948L234.953 82.5348C234.473 83.1081 233.866 83.5414 233.133 83.8348C232.4 84.1281 231.573 84.2748 230.653 84.2748C229.48 84.2748 228.446 84.0414 227.553 83.5748C226.66 83.1081 225.966 82.4614 225.473 81.6348C224.993 80.7948 224.753 79.8481 224.753 78.7948C224.753 77.7548 224.986 76.8214 225.453 75.9948C225.933 75.1548 226.593 74.5014 227.433 74.0348C228.273 73.5681 229.22 73.3348 230.273 73.3348C231.313 73.3348 232.24 73.5681 233.053 74.0348C233.88 74.4881 234.52 75.1348 234.973 75.9748C235.44 76.8014 235.673 77.7614 235.673 78.8548ZM230.273 75.3348C229.473 75.3348 228.793 75.5748 228.233 76.0548C227.686 76.5214 227.353 77.1481 227.233 77.9348H233.293C233.186 77.1614 232.86 76.5348 232.313 76.0548C231.766 75.5748 231.086 75.3348 230.273 75.3348ZM244.327 73.3348C245.367 73.3348 246.294 73.5614 247.107 74.0148C247.934 74.4681 248.581 75.1081 249.047 75.9348C249.514 76.7614 249.747 77.7148 249.747 78.7948C249.747 79.8748 249.514 80.8348 249.047 81.6748C248.581 82.5014 247.934 83.1414 247.107 83.5948C246.294 84.0481 245.367 84.2748 244.327 84.2748C242.887 84.2748 241.747 83.7948 240.907 82.8348V88.0148H238.407V73.4548H240.787V74.8548C241.201 74.3481 241.707 73.9681 242.307 73.7148C242.921 73.4614 243.594 73.3348 244.327 73.3348ZM244.047 82.1348C244.967 82.1348 245.721 81.8281 246.307 81.2148C246.907 80.6014 247.207 79.7948 247.207 78.7948C247.207 77.7948 246.907 76.9881 246.307 76.3748C245.721 75.7614 244.967 75.4548 244.047 75.4548C243.447 75.4548 242.907 75.5948 242.427 75.8748C241.947 76.1414 241.567 76.5281 241.287 77.0348C241.007 77.5414 240.867 78.1281 240.867 78.7948C240.867 79.4614 241.007 80.0481 241.287 80.5548C241.567 81.0614 241.947 81.4548 242.427 81.7348C242.907 82.0014 243.447 82.1348 244.047 82.1348ZM256.079 73.3348C257.652 73.3348 258.852 73.7148 259.679 74.4748C260.519 75.2214 260.939 76.3548 260.939 77.8748V84.1348H258.579V82.8348C258.272 83.3014 257.832 83.6614 257.259 83.9148C256.699 84.1548 256.019 84.2748 255.219 84.2748C254.419 84.2748 253.719 84.1414 253.119 83.8748C252.519 83.5948 252.052 83.2148 251.719 82.7348C251.399 82.2414 251.239 81.6881 251.239 81.0748C251.239 80.1148 251.592 79.3481 252.299 78.7748C253.019 78.1881 254.145 77.8948 255.679 77.8948H258.439V77.7348C258.439 76.9881 258.212 76.4148 257.759 76.0148C257.319 75.6148 256.659 75.4148 255.779 75.4148C255.179 75.4148 254.585 75.5081 253.999 75.6948C253.425 75.8814 252.939 76.1414 252.539 76.4748L251.559 74.6548C252.119 74.2281 252.792 73.9014 253.579 73.6748C254.365 73.4481 255.199 73.3348 256.079 73.3348ZM255.739 82.4548C256.365 82.4548 256.919 82.3148 257.399 82.0348C257.892 81.7414 258.239 81.3281 258.439 80.7948V79.5548H255.859C254.419 79.5548 253.699 80.0281 253.699 80.9748C253.699 81.4281 253.879 81.7881 254.239 82.0548C254.599 82.3214 255.099 82.4548 255.739 82.4548ZM274.272 73.4548V84.1348H271.792V75.5748H266.532V84.1348H264.032V73.4548H274.272ZM277.646 73.4548H280.146V80.4948L286.046 73.4548H288.326V84.1348H285.826V77.0948L279.946 84.1348H277.646V73.4548ZM300.709 73.4548V84.1348H298.469V80.9148H295.649L293.469 84.1348H290.789L293.309 80.5748C292.535 80.3081 291.942 79.9014 291.529 79.3548C291.129 78.7948 290.929 78.1081 290.929 77.2948C290.929 76.0681 291.362 75.1214 292.229 74.4548C293.095 73.7881 294.289 73.4548 295.809 73.4548H300.709ZM295.889 75.5548C294.275 75.5548 293.469 76.1614 293.469 77.3748C293.469 78.5748 294.249 79.1748 295.809 79.1748H298.469V75.5548H295.889ZM205.931 108.275C204.851 108.275 203.878 108.041 203.011 107.575C202.144 107.108 201.464 106.461 200.971 105.635C200.491 104.795 200.251 103.848 200.251 102.795C200.251 101.741 200.491 100.801 200.971 99.9748C201.464 99.1481 202.144 98.5014 203.011 98.0348C203.878 97.5681 204.851 97.3348 205.931 97.3348C207.024 97.3348 208.004 97.5681 208.871 98.0348C209.738 98.5014 210.411 99.1481 210.891 99.9748C211.384 100.801 211.631 101.741 211.631 102.795C211.631 103.848 211.384 104.795 210.891 105.635C210.411 106.461 209.738 107.108 208.871 107.575C208.004 108.041 207.024 108.275 205.931 108.275ZM205.931 106.135C206.851 106.135 207.611 105.828 208.211 105.215C208.811 104.601 209.111 103.795 209.111 102.795C209.111 101.795 208.811 100.988 208.211 100.375C207.611 99.7614 206.851 99.4548 205.931 99.4548C205.011 99.4548 204.251 99.7614 203.651 100.375C203.064 100.988 202.771 101.795 202.771 102.795C202.771 103.795 203.064 104.601 203.651 105.215C204.251 105.828 205.011 106.135 205.931 106.135ZM222.17 99.5748H218.43V108.135H215.93V99.5748H212.17V97.4548H222.17V99.5748ZM234.224 97.4548V108.135H231.744V99.5748H226.484V108.135H223.984V97.4548H234.224ZM243.517 97.3348C244.557 97.3348 245.484 97.5614 246.297 98.0148C247.124 98.4681 247.77 99.1081 248.237 99.9348C248.704 100.761 248.937 101.715 248.937 102.795C248.937 103.875 248.704 104.835 248.237 105.675C247.77 106.501 247.124 107.141 246.297 107.595C245.484 108.048 244.557 108.275 243.517 108.275C242.077 108.275 240.937 107.795 240.097 106.835V112.015H237.597V97.4548H239.977V98.8548C240.39 98.3481 240.897 97.9681 241.497 97.7148C242.11 97.4614 242.784 97.3348 243.517 97.3348ZM243.237 106.135C244.157 106.135 244.91 105.828 245.497 105.215C246.097 104.601 246.397 103.795 246.397 102.795C246.397 101.795 246.097 100.988 245.497 100.375C244.91 99.7614 244.157 99.4548 243.237 99.4548C242.637 99.4548 242.097 99.5948 241.617 99.8748C241.137 100.141 240.757 100.528 240.477 101.035C240.197 101.541 240.057 102.128 240.057 102.795C240.057 103.461 240.197 104.048 240.477 104.555C240.757 105.061 241.137 105.455 241.617 105.735C242.097 106.001 242.637 106.135 243.237 106.135ZM255.268 97.3348C256.842 97.3348 258.042 97.7148 258.868 98.4748C259.708 99.2214 260.128 100.355 260.128 101.875V108.135H257.768V106.835C257.462 107.301 257.022 107.661 256.448 107.915C255.888 108.155 255.208 108.275 254.408 108.275C253.608 108.275 252.908 108.141 252.308 107.875C251.708 107.595 251.242 107.215 250.908 106.735C250.588 106.241 250.428 105.688 250.428 105.075C250.428 104.115 250.782 103.348 251.488 102.775C252.208 102.188 253.335 101.895 254.868 101.895H257.628V101.735C257.628 100.988 257.402 100.415 256.948 100.015C256.508 99.6148 255.848 99.4148 254.968 99.4148C254.368 99.4148 253.775 99.5081 253.188 99.6948C252.615 99.8814 252.128 100.141 251.728 100.475L250.748 98.6548C251.308 98.2281 251.982 97.9014 252.768 97.6748C253.555 97.4481 254.388 97.3348 255.268 97.3348ZM254.928 106.455C255.555 106.455 256.108 106.315 256.588 106.035C257.082 105.741 257.428 105.328 257.628 104.795V103.555H255.048C253.608 103.555 252.888 104.028 252.888 104.975C252.888 105.428 253.068 105.788 253.428 106.055C253.788 106.321 254.288 106.455 254.928 106.455ZM270.962 102.575C272.282 102.975 272.942 103.828 272.942 105.135C272.942 106.095 272.582 106.835 271.862 107.355C271.142 107.875 270.075 108.135 268.662 108.135H263.222V97.4548H268.442C269.749 97.4548 270.769 97.6948 271.502 98.1748C272.235 98.6548 272.602 99.3348 272.602 100.215C272.602 100.761 272.455 101.235 272.162 101.635C271.882 102.035 271.482 102.348 270.962 102.575ZM265.602 101.915H268.222C269.515 101.915 270.162 101.468 270.162 100.575C270.162 99.7081 269.515 99.2748 268.222 99.2748H265.602V101.915ZM268.462 106.315C269.835 106.315 270.522 105.868 270.522 104.975C270.522 104.508 270.362 104.161 270.042 103.935C269.722 103.695 269.222 103.575 268.542 103.575H265.602V106.315H268.462ZM275.605 97.4548H278.105V101.795H283.485V97.4548H285.985V108.135H283.485V103.915H278.105V108.135H275.605V97.4548ZM294.535 100.975C295.895 100.975 296.935 101.281 297.655 101.895C298.375 102.508 298.735 103.375 298.735 104.495C298.735 105.668 298.335 106.575 297.535 107.215C296.748 107.855 295.628 108.168 294.175 108.155L289.335 108.135V97.4548H291.835V100.955L294.535 100.975ZM300.115 97.4548H302.615V108.135H300.115V97.4548ZM293.955 106.315C294.688 106.328 295.248 106.175 295.635 105.855C296.022 105.535 296.215 105.068 296.215 104.455C296.215 103.855 296.028 103.415 295.655 103.135C295.282 102.855 294.715 102.708 293.955 102.695L291.835 102.675V106.295L293.955 106.315ZM312.656 108.135L309.916 104.435L307.156 108.135H304.396L308.556 102.715L304.576 97.4548H307.356L309.976 100.955L312.596 97.4548H315.296L311.296 102.675L315.476 108.135H312.656ZM237.551 123.575H233.811V132.135H231.311V123.575H227.551V121.455H237.551V123.575ZM243.656 132.275C242.576 132.275 241.602 132.041 240.736 131.575C239.869 131.108 239.189 130.461 238.696 129.635C238.216 128.795 237.976 127.848 237.976 126.795C237.976 125.741 238.216 124.801 238.696 123.975C239.189 123.148 239.869 122.501 240.736 122.035C241.602 121.568 242.576 121.335 243.656 121.335C244.749 121.335 245.729 121.568 246.596 122.035C247.462 122.501 248.136 123.148 248.616 123.975C249.109 124.801 249.356 125.741 249.356 126.795C249.356 127.848 249.109 128.795 248.616 129.635C248.136 130.461 247.462 131.108 246.596 131.575C245.729 132.041 244.749 132.275 243.656 132.275ZM243.656 130.135C244.576 130.135 245.336 129.828 245.936 129.215C246.536 128.601 246.836 127.795 246.836 126.795C246.836 125.795 246.536 124.988 245.936 124.375C245.336 123.761 244.576 123.455 243.656 123.455C242.736 123.455 241.976 123.761 241.376 124.375C240.789 124.988 240.496 125.795 240.496 126.795C240.496 127.795 240.789 128.601 241.376 129.215C241.976 129.828 242.736 130.135 243.656 130.135ZM260.885 121.455V132.135H258.385V127.995C257.359 128.488 256.285 128.735 255.165 128.735C253.792 128.735 252.739 128.421 252.005 127.795C251.272 127.155 250.905 126.181 250.905 124.875V121.455H253.405V124.715C253.405 125.395 253.605 125.901 254.005 126.235C254.405 126.568 254.972 126.735 255.705 126.735C256.639 126.735 257.532 126.535 258.385 126.135V121.455H260.885ZM274.247 126.855C274.247 127.028 274.234 127.275 274.207 127.595H265.827C265.974 128.381 266.354 129.008 266.967 129.475C267.594 129.928 268.367 130.155 269.287 130.155C270.461 130.155 271.427 129.768 272.187 128.995L273.527 130.535C273.047 131.108 272.441 131.541 271.707 131.835C270.974 132.128 270.147 132.275 269.227 132.275C268.054 132.275 267.021 132.041 266.127 131.575C265.234 131.108 264.541 130.461 264.047 129.635C263.567 128.795 263.327 127.848 263.327 126.795C263.327 125.755 263.561 124.821 264.027 123.995C264.507 123.155 265.167 122.501 266.007 122.035C266.847 121.568 267.794 121.335 268.847 121.335C269.887 121.335 270.814 121.568 271.627 122.035C272.454 122.488 273.094 123.135 273.547 123.975C274.014 124.801 274.247 125.761 274.247 126.855ZM268.847 123.335C268.047 123.335 267.367 123.575 266.807 124.055C266.261 124.521 265.927 125.148 265.807 125.935H271.867C271.761 125.161 271.434 124.535 270.887 124.055C270.341 123.575 269.661 123.335 268.847 123.335ZM281.422 127.855H279.482V132.135H276.982V121.455H279.482V125.775H281.482L284.642 121.455H287.322L283.442 126.595L287.582 132.135H284.642L281.422 127.855Z" fill="white"/>
<path d="M47.4078 260.959C45.9945 260.959 44.7145 260.652 43.5678 260.039C42.4345 259.412 41.5411 258.552 40.8878 257.459C40.2478 256.365 39.9278 255.132 39.9278 253.759C39.9278 252.385 40.2545 251.152 40.9078 250.059C41.5611 248.965 42.4545 248.112 43.5878 247.499C44.7345 246.872 46.0145 246.559 47.4278 246.559C48.5745 246.559 49.6211 246.759 50.5678 247.159C51.5145 247.559 52.3145 248.139 52.9678 248.899L51.2878 250.479C50.2745 249.385 49.0278 248.839 47.5478 248.839C46.5878 248.839 45.7278 249.052 44.9678 249.479C44.2078 249.892 43.6145 250.472 43.1878 251.219C42.7611 251.965 42.5478 252.812 42.5478 253.759C42.5478 254.705 42.7611 255.552 43.1878 256.299C43.6145 257.045 44.2078 257.632 44.9678 258.059C45.7278 258.472 46.5878 258.679 47.5478 258.679C49.0278 258.679 50.2745 258.125 51.2878 257.019L52.9678 258.619C52.3145 259.379 51.5078 259.959 50.5478 260.359C49.6011 260.759 48.5545 260.959 47.4078 260.959ZM55.1019 250.079H57.6019V257.119L63.5019 250.079H65.7819V260.759H63.2819V253.719L57.4019 260.759H55.1019V250.079ZM79.6448 260.759V253.679L76.0448 259.639H74.9648L71.4248 253.659V260.759H69.1448V250.079H71.7648L75.5648 256.759L79.5448 250.079H81.8848L81.9048 260.759H79.6448ZM92.9981 255.199C94.3181 255.599 94.9781 256.452 94.9781 257.759C94.9781 258.719 94.6181 259.459 93.8981 259.979C93.1781 260.499 92.1115 260.759 90.6981 260.759H85.2581V250.079H90.4781C91.7848 250.079 92.8048 250.319 93.5381 250.799C94.2715 251.279 94.6381 251.959 94.6381 252.839C94.6381 253.385 94.4915 253.859 94.1981 254.259C93.9181 254.659 93.5181 254.972 92.9981 255.199ZM87.6381 254.539H90.2581C91.5515 254.539 92.1981 254.092 92.1981 253.199C92.1981 252.332 91.5515 251.899 90.2581 251.899H87.6381V254.539ZM90.4981 258.939C91.8715 258.939 92.5581 258.492 92.5581 257.599C92.5581 257.132 92.3981 256.785 92.0781 256.559C91.7581 256.319 91.2581 256.199 90.5781 256.199H87.6381V258.939H90.4981ZM102.401 260.899C101.321 260.899 100.348 260.665 99.4809 260.199C98.6143 259.732 97.9343 259.085 97.4409 258.259C96.9609 257.419 96.7209 256.472 96.7209 255.419C96.7209 254.365 96.9609 253.425 97.4409 252.599C97.9343 251.772 98.6143 251.125 99.4809 250.659C100.348 250.192 101.321 249.959 102.401 249.959C103.494 249.959 104.474 250.192 105.341 250.659C106.208 251.125 106.881 251.772 107.361 252.599C107.854 253.425 108.101 254.365 108.101 255.419C108.101 256.472 107.854 257.419 107.361 258.259C106.881 259.085 106.208 259.732 105.341 260.199C104.474 260.665 103.494 260.899 102.401 260.899ZM102.401 258.759C103.321 258.759 104.081 258.452 104.681 257.839C105.281 257.225 105.581 256.419 105.581 255.419C105.581 254.419 105.281 253.612 104.681 252.999C104.081 252.385 103.321 252.079 102.401 252.079C101.481 252.079 100.721 252.385 100.121 252.999C99.5343 253.612 99.2409 254.419 99.2409 255.419C99.2409 256.419 99.5343 257.225 100.121 257.839C100.721 258.452 101.481 258.759 102.401 258.759ZM120.133 250.079V260.759H117.633V252.199H113.633L113.533 254.319C113.467 255.732 113.333 256.919 113.133 257.879C112.947 258.825 112.62 259.579 112.153 260.139C111.7 260.685 111.073 260.959 110.273 260.959C109.9 260.959 109.44 260.885 108.893 260.739L109.013 258.639C109.2 258.679 109.36 258.699 109.493 258.699C110 258.699 110.38 258.499 110.633 258.099C110.887 257.685 111.047 257.199 111.113 256.639C111.193 256.065 111.26 255.252 111.313 254.199L111.493 250.079H120.133ZM123.5 250.079H126V257.119L131.9 250.079H134.18V260.759H131.68V253.719L125.8 260.759H123.5V250.079ZM143.787 255.199C144.453 255.385 144.967 255.692 145.327 256.119C145.7 256.532 145.887 257.032 145.887 257.619C145.887 258.272 145.667 258.852 145.227 259.359C144.787 259.852 144.18 260.239 143.407 260.519C142.633 260.799 141.753 260.939 140.767 260.939C139.94 260.939 139.133 260.845 138.347 260.659C137.56 260.459 136.847 260.179 136.207 259.819L136.927 257.959C137.447 258.252 138.033 258.479 138.687 258.639C139.34 258.799 139.993 258.879 140.647 258.879C141.487 258.879 142.14 258.752 142.607 258.499C143.087 258.232 143.327 257.872 143.327 257.419C143.327 257.005 143.14 256.685 142.767 256.459C142.407 256.232 141.893 256.119 141.227 256.119H139.147V254.439H141.027C141.653 254.439 142.14 254.332 142.487 254.119C142.847 253.905 143.027 253.605 143.027 253.219C143.027 252.832 142.813 252.525 142.387 252.299C141.96 252.072 141.373 251.959 140.627 251.959C139.56 251.959 138.433 252.219 137.247 252.739L136.607 250.899C138.007 250.245 139.42 249.919 140.847 249.919C141.753 249.919 142.567 250.045 143.287 250.299C144.007 250.539 144.567 250.885 144.967 251.339C145.38 251.779 145.587 252.285 145.587 252.859C145.587 253.379 145.427 253.845 145.107 254.259C144.787 254.659 144.347 254.972 143.787 255.199ZM158.981 260.759V253.679L155.381 259.639H154.301L150.761 253.659V260.759H148.481V250.079H151.101L154.901 256.759L158.881 250.079H161.221L161.241 260.759H158.981Z" fill="white"/>
<path d="M230.375 260.759L230.355 251.479L225.755 259.159H224.595L219.995 251.599V260.759H217.535V246.759H219.675L225.215 256.019L230.695 246.759H232.815L232.855 260.759H230.375ZM241.253 260.899C240.173 260.899 239.199 260.665 238.333 260.199C237.466 259.732 236.786 259.085 236.293 258.259C235.813 257.419 235.573 256.472 235.573 255.419C235.573 254.365 235.813 253.425 236.293 252.599C236.786 251.772 237.466 251.125 238.333 250.659C239.199 250.192 240.173 249.959 241.253 249.959C242.346 249.959 243.326 250.192 244.193 250.659C245.059 251.125 245.733 251.772 246.213 252.599C246.706 253.425 246.953 254.365 246.953 255.419C246.953 256.472 246.706 257.419 246.213 258.259C245.733 259.085 245.059 259.732 244.193 260.199C243.326 260.665 242.346 260.899 241.253 260.899ZM241.253 258.759C242.173 258.759 242.933 258.452 243.533 257.839C244.133 257.225 244.433 256.419 244.433 255.419C244.433 254.419 244.133 253.612 243.533 252.999C242.933 252.385 242.173 252.079 241.253 252.079C240.333 252.079 239.573 252.385 238.973 252.999C238.386 253.612 238.093 254.419 238.093 255.419C238.093 256.419 238.386 257.225 238.973 257.839C239.573 258.452 240.333 258.759 241.253 258.759ZM249.422 250.079H251.922V254.419H257.302V250.079H259.802V260.759H257.302V256.539H251.922V260.759H249.422V250.079ZM267.913 260.899C266.833 260.899 265.859 260.665 264.993 260.199C264.126 259.732 263.446 259.085 262.953 258.259C262.473 257.419 262.233 256.472 262.233 255.419C262.233 254.365 262.473 253.425 262.953 252.599C263.446 251.772 264.126 251.125 264.993 250.659C265.859 250.192 266.833 249.959 267.913 249.959C269.006 249.959 269.986 250.192 270.853 250.659C271.719 251.125 272.393 251.772 272.873 252.599C273.366 253.425 273.613 254.365 273.613 255.419C273.613 256.472 273.366 257.419 272.873 258.259C272.393 259.085 271.719 259.732 270.853 260.199C269.986 260.665 269.006 260.899 267.913 260.899ZM267.913 258.759C268.833 258.759 269.593 258.452 270.193 257.839C270.793 257.225 271.093 256.419 271.093 255.419C271.093 254.419 270.793 253.612 270.193 252.999C269.593 252.385 268.833 252.079 267.913 252.079C266.993 252.079 266.233 252.385 265.633 252.999C265.046 253.612 264.753 254.419 264.753 255.419C264.753 256.419 265.046 257.225 265.633 257.839C266.233 258.452 266.993 258.759 267.913 258.759ZM285.645 250.079V260.759H283.145V252.199H279.145L279.045 254.319C278.978 255.732 278.845 256.919 278.645 257.879C278.458 258.825 278.132 259.579 277.665 260.139C277.212 260.685 276.585 260.959 275.785 260.959C275.412 260.959 274.952 260.885 274.405 260.739L274.525 258.639C274.712 258.679 274.872 258.699 275.005 258.699C275.512 258.699 275.892 258.499 276.145 258.099C276.398 257.685 276.558 257.199 276.625 256.639C276.705 256.065 276.772 255.252 276.825 254.199L277.005 250.079H285.645ZM293.772 260.899C292.692 260.899 291.719 260.665 290.852 260.199C289.985 259.732 289.305 259.085 288.812 258.259C288.332 257.419 288.092 256.472 288.092 255.419C288.092 254.365 288.332 253.425 288.812 252.599C289.305 251.772 289.985 251.125 290.852 250.659C291.719 250.192 292.692 249.959 293.772 249.959C294.865 249.959 295.845 250.192 296.712 250.659C297.579 251.125 298.252 251.772 298.732 252.599C299.225 253.425 299.472 254.365 299.472 255.419C299.472 256.472 299.225 257.419 298.732 258.259C298.252 259.085 297.579 259.732 296.712 260.199C295.845 260.665 294.865 260.899 293.772 260.899ZM293.772 258.759C294.692 258.759 295.452 258.452 296.052 257.839C296.652 257.225 296.952 256.419 296.952 255.419C296.952 254.419 296.652 253.612 296.052 252.999C295.452 252.385 294.692 252.079 293.772 252.079C292.852 252.079 292.092 252.385 291.492 252.999C290.905 253.612 290.612 254.419 290.612 255.419C290.612 256.419 290.905 257.225 291.492 257.839C292.092 258.452 292.852 258.759 293.772 258.759ZM310.142 252.199H304.442V260.759H301.942V250.079H310.142V252.199Z" fill="white"/>
<path d="M387.345 236.786H380.405L380.425 248.586H377.865V234.586H387.365L387.345 236.786ZM396.373 243.306C396.373 243.479 396.36 243.726 396.333 244.046H387.953C388.1 244.833 388.48 245.459 389.093 245.926C389.72 246.379 390.493 246.606 391.413 246.606C392.587 246.606 393.553 246.219 394.313 245.446L395.653 246.986C395.173 247.559 394.567 247.993 393.833 248.286C393.1 248.579 392.273 248.726 391.353 248.726C390.18 248.726 389.147 248.493 388.253 248.026C387.36 247.559 386.667 246.913 386.173 246.086C385.693 245.246 385.453 244.299 385.453 243.246C385.453 242.206 385.687 241.273 386.153 240.446C386.633 239.606 387.293 238.953 388.133 238.486C388.973 238.019 389.92 237.786 390.973 237.786C392.013 237.786 392.94 238.019 393.753 238.486C394.58 238.939 395.22 239.586 395.673 240.426C396.14 241.253 396.373 242.213 396.373 243.306ZM390.973 239.786C390.173 239.786 389.493 240.026 388.933 240.506C388.387 240.973 388.053 241.599 387.933 242.386H393.993C393.887 241.613 393.56 240.986 393.013 240.506C392.467 240.026 391.787 239.786 390.973 239.786ZM414.848 237.906V248.586H399.108V237.906H401.608V246.466H405.748V237.906H408.248V246.466H412.348V237.906H414.848ZM426.669 240.026H422.929V248.586H420.429V240.026H416.669V237.906H426.669V240.026ZM432.463 237.786C434.036 237.786 435.236 238.166 436.063 238.926C436.903 239.673 437.323 240.806 437.323 242.326V248.586H434.963V247.286C434.656 247.753 434.216 248.113 433.643 248.366C433.083 248.606 432.403 248.726 431.603 248.726C430.803 248.726 430.103 248.593 429.503 248.326C428.903 248.046 428.436 247.666 428.103 247.186C427.783 246.693 427.623 246.139 427.623 245.526C427.623 244.566 427.976 243.799 428.683 243.226C429.403 242.639 430.529 242.346 432.063 242.346H434.823V242.186C434.823 241.439 434.596 240.866 434.143 240.466C433.703 240.066 433.043 239.866 432.163 239.866C431.563 239.866 430.969 239.959 430.383 240.146C429.809 240.333 429.323 240.593 428.923 240.926L427.943 239.106C428.503 238.679 429.176 238.353 429.963 238.126C430.749 237.899 431.583 237.786 432.463 237.786ZM432.123 246.906C432.749 246.906 433.303 246.766 433.783 246.486C434.276 246.193 434.623 245.779 434.823 245.246V244.006H432.243C430.803 244.006 430.083 244.479 430.083 245.426C430.083 245.879 430.263 246.239 430.623 246.506C430.983 246.773 431.483 246.906 432.123 246.906ZM450.096 237.906V248.586H447.596V240.026H443.596L443.496 242.146C443.43 243.559 443.296 244.746 443.096 245.706C442.91 246.653 442.583 247.406 442.116 247.966C441.663 248.513 441.036 248.786 440.236 248.786C439.863 248.786 439.403 248.713 438.856 248.566L438.976 246.466C439.163 246.506 439.323 246.526 439.456 246.526C439.963 246.526 440.343 246.326 440.596 245.926C440.85 245.513 441.01 245.026 441.076 244.466C441.156 243.893 441.223 243.079 441.276 242.026L441.456 237.906H450.096ZM458.823 241.426C460.183 241.426 461.223 241.733 461.943 242.346C462.676 242.959 463.043 243.826 463.043 244.946C463.043 246.119 462.643 247.026 461.843 247.666C461.043 248.306 459.916 248.619 458.463 248.606L453.463 248.586V237.906H455.963V241.406L458.823 241.426ZM458.243 246.766C458.976 246.779 459.536 246.626 459.923 246.306C460.31 245.986 460.503 245.519 460.503 244.906C460.503 244.306 460.316 243.866 459.943 243.586C459.57 243.306 459.003 243.159 458.243 243.146L455.963 243.126V246.746L458.243 246.766ZM472.704 240.026H468.964V248.586H466.464V240.026H462.704V237.906H472.704V240.026ZM473.645 241.986H479.145V244.066H473.645V241.986ZM393.954 264.026H390.214V272.586H387.714V264.026H383.954V261.906H393.954V264.026ZM405.299 267.306C405.299 267.479 405.286 267.726 405.259 268.046H396.879C397.026 268.833 397.406 269.459 398.019 269.926C398.646 270.379 399.419 270.606 400.339 270.606C401.512 270.606 402.479 270.219 403.239 269.446L404.579 270.986C404.099 271.559 403.492 271.993 402.759 272.286C402.026 272.579 401.199 272.726 400.279 272.726C399.106 272.726 398.072 272.493 397.179 272.026C396.286 271.559 395.592 270.913 395.099 270.086C394.619 269.246 394.379 268.299 394.379 267.246C394.379 266.206 394.612 265.273 395.079 264.446C395.559 263.606 396.219 262.953 397.059 262.486C397.899 262.019 398.846 261.786 399.899 261.786C400.939 261.786 401.866 262.019 402.679 262.486C403.506 262.939 404.146 263.586 404.599 264.426C405.066 265.253 405.299 266.213 405.299 267.306ZM399.899 263.786C399.099 263.786 398.419 264.026 397.859 264.506C397.312 264.973 396.979 265.599 396.859 266.386H402.919C402.812 265.613 402.486 264.986 401.939 264.506C401.392 264.026 400.712 263.786 399.899 263.786ZM413.953 261.786C414.993 261.786 415.92 262.013 416.733 262.466C417.56 262.919 418.207 263.559 418.673 264.386C419.14 265.213 419.373 266.166 419.373 267.246C419.373 268.326 419.14 269.286 418.673 270.126C418.207 270.953 417.56 271.593 416.733 272.046C415.92 272.499 414.993 272.726 413.953 272.726C412.513 272.726 411.373 272.246 410.533 271.286V276.466H408.033V261.906H410.413V263.306C410.827 262.799 411.333 262.419 411.933 262.166C412.547 261.913 413.22 261.786 413.953 261.786ZM413.673 270.586C414.593 270.586 415.347 270.279 415.933 269.666C416.533 269.053 416.833 268.246 416.833 267.246C416.833 266.246 416.533 265.439 415.933 264.826C415.347 264.213 414.593 263.906 413.673 263.906C413.073 263.906 412.533 264.046 412.053 264.326C411.573 264.593 411.193 264.979 410.913 265.486C410.633 265.993 410.493 266.579 410.493 267.246C410.493 267.913 410.633 268.499 410.913 269.006C411.193 269.513 411.573 269.906 412.053 270.186C412.533 270.453 413.073 270.586 413.673 270.586ZM425.705 261.786C427.278 261.786 428.478 262.166 429.305 262.926C430.145 263.673 430.565 264.806 430.565 266.326V272.586H428.205V271.286C427.898 271.753 427.458 272.113 426.885 272.366C426.325 272.606 425.645 272.726 424.845 272.726C424.045 272.726 423.345 272.593 422.745 272.326C422.145 272.046 421.678 271.666 421.345 271.186C421.025 270.693 420.865 270.139 420.865 269.526C420.865 268.566 421.218 267.799 421.925 267.226C422.645 266.639 423.771 266.346 425.305 266.346H428.065V266.186C428.065 265.439 427.838 264.866 427.385 264.466C426.945 264.066 426.285 263.866 425.405 263.866C424.805 263.866 424.211 263.959 423.625 264.146C423.051 264.333 422.565 264.593 422.165 264.926L421.185 263.106C421.745 262.679 422.418 262.353 423.205 262.126C423.991 261.899 424.825 261.786 425.705 261.786ZM425.365 270.906C425.991 270.906 426.545 270.766 427.025 270.486C427.518 270.193 427.865 269.779 428.065 269.246V268.006H425.485C424.045 268.006 423.325 268.479 423.325 269.426C423.325 269.879 423.505 270.239 423.865 270.506C424.225 270.773 424.725 270.906 425.365 270.906ZM443.898 261.906V272.586H441.418V264.026H436.158V272.586H433.658V261.906H443.898ZM447.272 261.906H449.772V268.946L455.672 261.906H457.952V272.586H455.452V265.546L449.572 272.586H447.272V261.906ZM470.335 261.906V272.586H468.095V269.366H465.275L463.095 272.586H460.415L462.935 269.026C462.161 268.759 461.568 268.353 461.155 267.806C460.755 267.246 460.555 266.559 460.555 265.746C460.555 264.519 460.988 263.573 461.855 262.906C462.721 262.239 463.915 261.906 465.435 261.906H470.335ZM465.515 264.006C463.901 264.006 463.095 264.613 463.095 265.826C463.095 267.026 463.875 267.626 465.435 267.626H468.095V264.006H465.515Z" fill="white"/>
<path d="M395.915 93.877V107.877H393.355V96.077H386.095V107.877H383.535V93.877H395.915ZM409.582 102.597C409.582 102.77 409.569 103.017 409.542 103.337H401.162C401.309 104.124 401.689 104.75 402.302 105.217C402.929 105.67 403.702 105.897 404.622 105.897C405.796 105.897 406.762 105.51 407.522 104.737L408.862 106.277C408.382 106.85 407.776 107.284 407.042 107.577C406.309 107.87 405.482 108.017 404.562 108.017C403.389 108.017 402.356 107.784 401.462 107.317C400.569 106.85 399.876 106.204 399.382 105.377C398.902 104.537 398.662 103.59 398.662 102.537C398.662 101.497 398.896 100.564 399.362 99.737C399.842 98.897 400.502 98.2436 401.342 97.777C402.182 97.3103 403.129 97.077 404.182 97.077C405.222 97.077 406.149 97.3103 406.962 97.777C407.789 98.2303 408.429 98.877 408.882 99.717C409.349 100.544 409.582 101.504 409.582 102.597ZM404.182 99.077C403.382 99.077 402.702 99.317 402.142 99.797C401.596 100.264 401.262 100.89 401.142 101.677H407.202C407.096 100.904 406.769 100.277 406.222 99.797C405.676 99.317 404.996 99.077 404.182 99.077ZM418.237 97.077C419.277 97.077 420.203 97.3036 421.017 97.757C421.843 98.2103 422.49 98.8503 422.957 99.677C423.423 100.504 423.657 101.457 423.657 102.537C423.657 103.617 423.423 104.577 422.957 105.417C422.49 106.244 421.843 106.884 421.017 107.337C420.203 107.79 419.277 108.017 418.237 108.017C416.797 108.017 415.657 107.537 414.817 106.577V111.757H412.317V97.197H414.697V98.597C415.11 98.0903 415.617 97.7103 416.217 97.457C416.83 97.2036 417.503 97.077 418.237 97.077ZM417.957 105.877C418.877 105.877 419.63 105.57 420.217 104.957C420.817 104.344 421.117 103.537 421.117 102.537C421.117 101.537 420.817 100.73 420.217 100.117C419.63 99.5036 418.877 99.197 417.957 99.197C417.357 99.197 416.817 99.337 416.337 99.617C415.857 99.8836 415.477 100.27 415.197 100.777C414.917 101.284 414.777 101.87 414.777 102.537C414.777 103.204 414.917 103.79 415.197 104.297C415.477 104.804 415.857 105.197 416.337 105.477C416.817 105.744 417.357 105.877 417.957 105.877ZM436.145 102.597C436.145 102.77 436.132 103.017 436.105 103.337H427.725C427.872 104.124 428.252 104.75 428.865 105.217C429.492 105.67 430.265 105.897 431.185 105.897C432.358 105.897 433.325 105.51 434.085 104.737L435.425 106.277C434.945 106.85 434.338 107.284 433.605 107.577C432.872 107.87 432.045 108.017 431.125 108.017C429.952 108.017 428.918 107.784 428.025 107.317C427.132 106.85 426.438 106.204 425.945 105.377C425.465 104.537 425.225 103.59 425.225 102.537C425.225 101.497 425.458 100.564 425.925 99.737C426.405 98.897 427.065 98.2436 427.905 97.777C428.745 97.3103 429.692 97.077 430.745 97.077C431.785 97.077 432.712 97.3103 433.525 97.777C434.352 98.2303 434.992 98.877 435.445 99.717C435.912 100.544 436.145 101.504 436.145 102.597ZM430.745 99.077C429.945 99.077 429.265 99.317 428.705 99.797C428.158 100.264 427.825 100.89 427.705 101.677H433.765C433.658 100.904 433.332 100.277 432.785 99.797C432.238 99.317 431.558 99.077 430.745 99.077ZM445.266 107.877L442.526 104.177L439.766 107.877H437.006L441.166 102.457L437.186 97.197H439.966L442.586 100.697L445.206 97.197H447.906L443.906 102.417L448.086 107.877H445.266ZM454.284 108.017C453.204 108.017 452.23 107.784 451.364 107.317C450.497 106.85 449.817 106.204 449.324 105.377C448.844 104.537 448.604 103.59 448.604 102.537C448.604 101.484 448.844 100.544 449.324 99.717C449.817 98.8903 450.497 98.2436 451.364 97.777C452.23 97.3103 453.204 97.077 454.284 97.077C455.377 97.077 456.357 97.3103 457.224 97.777C458.09 98.2436 458.764 98.8903 459.244 99.717C459.737 100.544 459.984 101.484 459.984 102.537C459.984 103.59 459.737 104.537 459.244 105.377C458.764 106.204 458.09 106.85 457.224 107.317C456.357 107.784 455.377 108.017 454.284 108.017ZM454.284 105.877C455.204 105.877 455.964 105.57 456.564 104.957C457.164 104.344 457.464 103.537 457.464 102.537C457.464 101.537 457.164 100.73 456.564 100.117C455.964 99.5036 455.204 99.197 454.284 99.197C453.364 99.197 452.604 99.5036 452.004 100.117C451.417 100.73 451.124 101.537 451.124 102.537C451.124 103.537 451.417 104.344 452.004 104.957C452.604 105.57 453.364 105.877 454.284 105.877ZM473.736 105.757V110.257H471.396V107.877H463.156V110.257H460.836V105.757H461.336C462.016 105.73 462.476 105.297 462.716 104.457C462.97 103.604 463.136 102.404 463.216 100.857L463.356 97.197H472.156V105.757H473.736ZM465.496 101.037C465.443 102.264 465.343 103.264 465.196 104.037C465.05 104.81 464.783 105.384 464.396 105.757H469.656V99.317H465.556L465.496 101.037Z" fill="white"/>
<path d="M66.2454 93.877C67.4587 93.877 68.5121 94.077 69.4054 94.477C70.3121 94.877 71.0054 95.4503 71.4854 96.197C71.9654 96.9436 72.2054 97.8303 72.2054 98.857C72.2054 99.8703 71.9654 100.757 71.4854 101.517C71.0054 102.264 70.3121 102.837 69.4054 103.237C68.5121 103.637 67.4587 103.837 66.2454 103.837H63.0854V107.877H60.4854V93.877H66.2454ZM66.1254 101.637C67.2587 101.637 68.1187 101.397 68.7054 100.917C69.2921 100.437 69.5854 99.7503 69.5854 98.857C69.5854 97.9636 69.2921 97.277 68.7054 96.797C68.1187 96.317 67.2587 96.077 66.1254 96.077H63.0854V101.637H66.1254ZM84.346 102.597C84.346 102.77 84.3327 103.017 84.306 103.337H75.926C76.0727 104.124 76.4527 104.75 77.066 105.217C77.6927 105.67 78.466 105.897 79.386 105.897C80.5593 105.897 81.526 105.51 82.286 104.737L83.626 106.277C83.146 106.85 82.5393 107.284 81.806 107.577C81.0727 107.87 80.246 108.017 79.326 108.017C78.1527 108.017 77.1193 107.784 76.226 107.317C75.3327 106.85 74.6393 106.204 74.146 105.377C73.666 104.537 73.426 103.59 73.426 102.537C73.426 101.497 73.6593 100.564 74.126 99.737C74.606 98.897 75.266 98.2436 76.106 97.777C76.946 97.3103 77.8927 97.077 78.946 97.077C79.986 97.077 80.9127 97.3103 81.726 97.777C82.5527 98.2303 83.1927 98.877 83.646 99.717C84.1127 100.544 84.346 101.504 84.346 102.597ZM78.946 99.077C78.146 99.077 77.466 99.317 76.906 99.797C76.3593 100.264 76.026 100.89 75.906 101.677H81.966C81.8593 100.904 81.5327 100.277 80.986 99.797C80.4393 99.317 79.7593 99.077 78.946 99.077ZM95.2804 99.317H89.5804V107.877H87.0804V97.197H95.2804V99.317ZM103.02 97.077C104.06 97.077 104.987 97.3036 105.8 97.757C106.627 98.2103 107.273 98.8503 107.74 99.677C108.207 100.504 108.44 101.457 108.44 102.537C108.44 103.617 108.207 104.577 107.74 105.417C107.273 106.244 106.627 106.884 105.8 107.337C104.987 107.79 104.06 108.017 103.02 108.017C101.58 108.017 100.44 107.537 99.5999 106.577V111.757H97.0999V97.197H99.4799V98.597C99.8933 98.0903 100.4 97.7103 101 97.457C101.613 97.2036 102.287 97.077 103.02 97.077ZM102.74 105.877C103.66 105.877 104.413 105.57 105 104.957C105.6 104.344 105.9 103.537 105.9 102.537C105.9 101.537 105.6 100.73 105 100.117C104.413 99.5036 103.66 99.197 102.74 99.197C102.14 99.197 101.6 99.337 101.12 99.617C100.64 99.8836 100.26 100.27 99.9799 100.777C99.6999 101.284 99.5599 101.87 99.5599 102.537C99.5599 103.204 99.6999 103.79 99.9799 104.297C100.26 104.804 100.64 105.197 101.12 105.477C101.6 105.744 102.14 105.877 102.74 105.877ZM120.928 102.597C120.928 102.77 120.915 103.017 120.888 103.337H112.508C112.655 104.124 113.035 104.75 113.648 105.217C114.275 105.67 115.048 105.897 115.968 105.897C117.141 105.897 118.108 105.51 118.868 104.737L120.208 106.277C119.728 106.85 119.121 107.284 118.388 107.577C117.655 107.87 116.828 108.017 115.908 108.017C114.735 108.017 113.701 107.784 112.808 107.317C111.915 106.85 111.221 106.204 110.728 105.377C110.248 104.537 110.008 103.59 110.008 102.537C110.008 101.497 110.241 100.564 110.708 99.737C111.188 98.897 111.848 98.2436 112.688 97.777C113.528 97.3103 114.475 97.077 115.528 97.077C116.568 97.077 117.495 97.3103 118.308 97.777C119.135 98.2303 119.775 98.877 120.228 99.717C120.695 100.544 120.928 101.504 120.928 102.597ZM115.528 99.077C114.728 99.077 114.048 99.317 113.488 99.797C112.941 100.264 112.608 100.89 112.488 101.677H118.548C118.441 100.904 118.115 100.277 117.568 99.797C117.021 99.317 116.341 99.077 115.528 99.077ZM128.522 108.017C127.416 108.017 126.422 107.784 125.542 107.317C124.662 106.85 123.976 106.204 123.482 105.377C122.989 104.537 122.742 103.59 122.742 102.537C122.742 101.484 122.989 100.544 123.482 99.717C123.976 98.8903 124.656 98.2436 125.522 97.777C126.402 97.3103 127.402 97.077 128.522 97.077C129.576 97.077 130.496 97.2903 131.282 97.717C132.082 98.1436 132.682 98.757 133.082 99.557L131.162 100.677C130.856 100.184 130.469 99.817 130.002 99.577C129.549 99.3236 129.049 99.197 128.502 99.197C127.569 99.197 126.796 99.5036 126.182 100.117C125.569 100.717 125.262 101.524 125.262 102.537C125.262 103.55 125.562 104.364 126.162 104.977C126.776 105.577 127.556 105.877 128.502 105.877C129.049 105.877 129.549 105.757 130.002 105.517C130.469 105.264 130.856 104.89 131.162 104.397L133.082 105.517C132.669 106.317 132.062 106.937 131.262 107.377C130.476 107.804 129.562 108.017 128.522 108.017ZM139.987 108.017C138.881 108.017 137.887 107.784 137.007 107.317C136.127 106.85 135.441 106.204 134.947 105.377C134.454 104.537 134.207 103.59 134.207 102.537C134.207 101.484 134.454 100.544 134.947 99.717C135.441 98.8903 136.121 98.2436 136.987 97.777C137.867 97.3103 138.867 97.077 139.987 97.077C141.041 97.077 141.961 97.2903 142.747 97.717C143.547 98.1436 144.147 98.757 144.547 99.557L142.627 100.677C142.321 100.184 141.934 99.817 141.467 99.577C141.014 99.3236 140.514 99.197 139.967 99.197C139.034 99.197 138.261 99.5036 137.647 100.117C137.034 100.717 136.727 101.524 136.727 102.537C136.727 103.55 137.027 104.364 137.627 104.977C138.241 105.577 139.021 105.877 139.967 105.877C140.514 105.877 141.014 105.757 141.467 105.517C141.934 105.264 142.321 104.89 142.627 104.397L144.547 105.517C144.134 106.317 143.527 106.937 142.727 107.377C141.941 107.804 141.027 108.017 139.987 108.017Z" fill="white"/>
<defs>
<linearGradient id="paint0_linear_910_646" x1="309.596" y1="71.965" x2="239.722" y2="263.701" gradientUnits="userSpaceOnUse">
<stop stop-color="#FFC444"/>
<stop offset="1" stop-color="#F36F56"/>
</linearGradient>
<linearGradient id="paint1_linear_910_646" x1="403.292" y1="199.638" x2="480.773" y2="341.35" gradientUnits="userSpaceOnUse">
<stop stop-color="#CC4FB3"/>
<stop offset="1" stop-color="#CA4D73"/>
</linearGradient>
<linearGradient id="paint2_linear_910_646" x1="-37.2794" y1="219.992" x2="23.6121" y2="338.974" gradientUnits="userSpaceOnUse">
<stop stop-color="#34C0AE"/>
<stop offset="1" stop-color="#2394C1"/>
</linearGradient>
<linearGradient id="paint3_linear_910_646" x1="340.14" y1="95.4624" x2="517.887" y2="106.542" gradientUnits="userSpaceOnUse">
<stop stop-color="#FF9085"/>
<stop offset="1" stop-color="#FB6FBB"/>
</linearGradient>
<linearGradient id="paint4_linear_910_646" x1="300.63" y1="355.347" x2="158.054" y2="226.039" gradientUnits="userSpaceOnUse">
<stop stop-color="#686CB3"/>
<stop offset="1" stop-color="#8C53B9"/>
</linearGradient>
<linearGradient id="paint5_linear_910_646" x1="138.177" y1="65.7538" x2="36.1659" y2="263.964" gradientUnits="userSpaceOnUse">
<stop stop-color="#FFC444"/>
<stop offset="1" stop-color="#F36F56"/>
</linearGradient>
<linearGradient id="paint6_linear_910_646" x1="-21.2367" y1="63.8413" x2="60.1181" y2="182.252" gradientUnits="userSpaceOnUse">
<stop stop-color="#33BFAD"/>
<stop offset="1" stop-color="#A1D532"/>
</linearGradient>
</defs>
</svg>
