<svg width="190" height="77" viewBox="0 0 190 77" fill="none" xmlns="http://www.w3.org/2000/svg">
<path d="M189.034 54.9633L177.663 56.9735L185.089 65.8157L189.034 54.9633ZM1.81532 24.3207C3.3529 23.3089 4.86669 22.3375 6.35717 21.4053L5.29669 19.7096C3.79272 20.6502 2.26597 21.63 0.715933 22.65L1.81532 24.3207ZM15.2268 16.1642C18.3923 14.408 21.4429 12.8438 24.3845 11.4601L23.5332 9.65032C20.5483 11.0544 17.458 12.6392 14.2566 14.4153L15.2268 16.1642ZM33.9242 7.45265C37.3977 6.17877 40.7009 5.18202 43.8463 4.43751L43.3857 2.49129C40.1564 3.25563 36.777 4.27613 33.2356 5.57494L33.9242 7.45265ZM54.0454 2.83524C57.6664 2.57706 61.0501 2.69264 64.2245 3.12909L64.4969 1.14773C61.1784 0.691469 57.6556 0.572752 53.9031 0.840305L54.0454 2.83524ZM74.0698 5.69979C77.2775 6.96695 80.2552 8.5972 83.0451 10.5157L84.1783 8.86772C81.276 6.87192 78.1655 5.16737 74.8046 3.83967L74.0698 5.69979ZM90.9198 17.0874C93.3399 19.4748 95.6165 22.0678 97.7899 24.7942L99.3538 23.5476C97.1422 20.7732 94.8126 18.1182 92.3244 15.6636L90.9198 17.0874ZM103.943 33.159C105.917 36.0265 107.825 38.9457 109.708 41.8499L111.386 40.7618C109.502 37.8557 107.581 34.9168 105.59 32.0249L103.943 33.159ZM115.437 50.6156C117.436 53.5988 119.452 56.4803 121.532 59.1639L123.113 57.9389C121.072 55.3059 119.084 52.4661 117.099 49.5025L115.437 50.6156ZM128.586 67.0849C131.278 69.6275 134.146 71.7679 137.27 73.3368L138.168 71.5495C135.257 70.0875 132.545 68.0734 129.959 65.6309L128.586 67.0849ZM147.68 76.1694C150.971 76.3707 154.494 75.9861 158.296 74.9256L157.758 72.9991C154.146 74.0067 150.847 74.3593 147.802 74.1732L147.68 76.1694ZM168.107 70.9741C170.958 69.5027 173.954 67.6993 177.11 65.5364L175.979 63.8866C172.882 66.0095 169.957 67.7686 167.189 69.1969L168.107 70.9741Z" fill="#C3C3C3"/>
</svg>
