<svg width="100" height="41" viewBox="0 0 100 41" fill="none" xmlns="http://www.w3.org/2000/svg">
<path d="M99.4822 12.0062L88.0935 10.1004L95.4383 1.19043L99.4822 12.0062ZM1.81532 27.6361C3.07452 28.4647 4.30265 29.2411 5.50073 29.9674L4.46393 31.6777C3.24367 30.9379 1.99467 30.1483 0.715933 29.3068L1.81532 27.6361ZM12.8906 34.0101C15.6996 35.3672 18.3145 36.4087 20.7539 37.1728L20.1562 39.0814C17.6117 38.2844 14.9057 37.2048 12.0205 35.8109L12.8906 34.0101ZM28.9072 38.7972C31.9306 39.0128 34.6248 38.7215 37.0559 38.0425L37.5939 39.9688C34.9303 40.7127 32.0053 41.0232 28.765 40.7922L28.9072 38.7972ZM44.3849 34.428C46.5881 32.818 48.5696 30.8525 50.4113 28.6729L51.939 29.9638C50.0262 32.2275 47.9306 34.314 45.5649 36.0428L44.3849 34.428ZM55.4519 21.8582C57.0797 19.4314 58.5739 17.0537 60.1495 14.6756L61.8168 15.7802C60.3032 18.0646 58.7172 20.5805 57.1128 22.9723L55.4519 21.8582ZM65.3178 7.65279C67.3708 5.27632 69.6111 3.26542 72.1921 1.96928L73.0896 3.75657C70.8294 4.89159 68.7891 6.69387 66.8313 8.96023L65.3178 7.65279ZM81.1333 0.590309C83.6674 0.964405 86.42 1.92976 89.4506 3.5763L88.4958 5.33368C85.6192 3.77082 83.0909 2.90097 80.8412 2.56887L81.1333 0.590309Z" fill="#C3C3C3"/>
</svg>
